<svg xmlns="http://www.w3.org/2000/svg" width="52.355" height="108.076" viewBox="0 0 52.355 108.076">
  <g id="Groupe_788" data-name="Groupe 788" transform="translate(-189.451 -169.954) rotate(9)">
    <path id="Tracé_674" data-name="Tracé 674" d="M255.963,155.908V143.7a1.885,1.885,0,0,0,.693-1.472v-2.508c0-.783-.741-1.229-1.348-1.53a3.133,3.133,0,0,0-.351-.808l-.171-.268-.3-.2c-.313-.2-2.1-1.226-6.473-1.226s-6.16,1.021-6.473,1.226l-.311.2-.172.28a3.176,3.176,0,0,0-.331.779c-.621.288-1.355.718-1.355,1.5v2.548a1.883,1.883,0,0,0,.693,1.472v12.21c0,6.835-2.015,8.559-4.349,10.556-2.812,2.405-6,5.132-6,15.341v50.66c0,1.552.816,3.708,4.708,5.162,3.041,1.137,7.486,1.689,13.59,1.689s10.549-.552,13.59-1.689c3.891-1.454,4.708-3.61,4.708-5.162V181.8c0-10.209-3.187-12.936-6-15.341C257.978,164.467,255.963,162.743,255.963,155.908Zm6.365,45.438c-.041,4.175-.033,8.351-.114,12.527l-.136,6.263c-.081,2.088-.129,4.176-.239,6.263-.11-2.087-.158-4.175-.239-6.263l-.136-6.263c-.081-4.175-.073-8.351-.114-12.527.038-4.175.034-8.351.112-12.527l.136-6.263c.081-2.088.129-4.175.24-6.263.111,2.088.159,4.175.24,6.263l.137,6.263C262.294,192.994,262.29,197.17,262.328,201.345Zm-20.607-58.739-.244.064a.671.671,0,0,1-.146-.445v-2.548c0-.018.02-.038.044-.06.226-.046.452-.084.68-.119a15.155,15.155,0,0,1,2.553-.47,33.562,33.562,0,0,1,6.808,0,12.467,12.467,0,0,1,3.264.713,11.507,11.507,0,0,0-1.644-.26c-.554-.059-1.111-.1-1.668-.128-1.115-.058-2.234-.081-3.354-.078s-2.24.02-3.355.079c-.326.017-.65.049-.974.075v2.606c.338-.055.678-.1,1.017-.143a31.776,31.776,0,0,1,6.624,0,11.8,11.8,0,0,1,3.168.71,10.892,10.892,0,0,0-1.6-.261c-.538-.059-1.079-.1-1.621-.129-1.084-.059-2.172-.082-3.261-.079s-2.178.02-3.262.079c-.542.029-1.083.071-1.621.129-.087.009-.173.022-.259.033C242.485,142.444,242.1,142.519,241.721,142.607Zm23.245,38.633.037,5.512c-.055,7.343-.044,14.687-.153,22.03l-.182,11.016c-.107,3.672-.171,7.343-.317,11.015-.147-3.672-.211-7.343-.318-11.015l-.182-11.016c-.109-7.343-.1-14.687-.153-22.03-.038-3.674.236-7.353-.437-10.938a13.266,13.266,0,0,0-1.974-5.141,12.6,12.6,0,0,0-1.986-2.222c-.767-.7-1.612-1.39-2.37-2.153a10.243,10.243,0,0,1-2.821-5.216,22.873,22.873,0,0,1-.449-5.542c.1-3.672.185-7.343.34-11.016.156,3.672.24,7.344.341,11.016a22.721,22.721,0,0,0,.61,5.43,9.8,9.8,0,0,0,2.805,4.876c.733.71,1.591,1.366,2.4,2.09a13.586,13.586,0,0,1,2.14,2.359,14.022,14.022,0,0,1,2.143,5.4A31.051,31.051,0,0,1,264.966,181.239ZM245.29,137.115a16.657,16.657,0,0,1,5.446,0,6.194,6.194,0,0,1,2.447.877,6.174,6.174,0,0,0-1.247-.334c-.426-.081-.86-.134-1.295-.176-.869-.081-1.748-.115-2.628-.111s-1.759.03-2.629.112c-.4.038-.8.089-1.2.16a4.226,4.226,0,0,0-.123.917l-.036.005a13.326,13.326,0,0,0-1.456.341,2.147,2.147,0,0,1,.268-.915l.046-.027A6.275,6.275,0,0,1,245.29,137.115ZM231.676,181.8c0-18.509,10.348-10.457,10.348-25.9V143.029q.54-.034,1.082-.057l.959,11.25.678-7.959v10.343c0,13.68-8.058,9.433-8.058,22.013v57.324c.463.112.961.216,1.509.308a76.649,76.649,0,0,0,19.636,0,11.642,11.642,0,0,0,4.875-1.68,4.419,4.419,0,0,0,1.39-1.606,2.955,2.955,0,0,1,.255-.5,3.3,3.3,0,0,1-.544,1.755,4.831,4.831,0,0,1-1.552,1.392,14.528,14.528,0,0,1-4.448,1.51,37.766,37.766,0,0,1-4.863.6c-1.638.118-3.285.143-4.93.157-1.645-.014-3.292-.039-4.931-.157a37.767,37.767,0,0,1-4.863-.6,14.528,14.528,0,0,1-4.448-1.51,4.838,4.838,0,0,1-1.552-1.392,3.29,3.29,0,0,1-.543-1.755Zm7.76,19.842c-.013,4.395-.041,8.79-.145,13.186q-.13,6.593-.508,13.186-.379-6.592-.508-13.186c-.1-4.4-.132-8.791-.144-13.186.011-4.4.039-8.791.143-13.186q.127-6.593.51-13.186.381,6.593.51,13.186C239.4,192.855,239.425,197.251,239.436,201.646Z" transform="translate(0)" fill="rgba(22,30,46,0.65)"/>
    <path id="Tracé_675" data-name="Tracé 675" d="M235.753,224.963c.074,2.435.117,4.87.219,7.306.1-2.435.144-4.871.218-7.306l.124-7.306c.078-4.87.092-9.741.1-14.612l-.027-7.306-.031-3.653a28.14,28.14,0,0,1,.1-3.6,9.483,9.483,0,0,1,.964-3.389c.531-1.053,1.35-1.977,1.951-3.072a10.182,10.182,0,0,0,1.129-3.515,19.928,19.928,0,0,0,.163-3.658,23.477,23.477,0,0,1-.386,3.618A9.863,9.863,0,0,1,239,181.811c-.618,1.017-1.456,1.918-2.068,3.023a10.091,10.091,0,0,0-1.14,3.562,25.217,25.217,0,0,0-.2,3.689l-.031,3.653-.027,7.306c.005,4.87.019,9.741.1,14.612Z" transform="translate(-3.538 3.807)" fill="rgba(22,30,46,0.65)"/>
  </g>
</svg>
