<svg xmlns="http://www.w3.org/2000/svg" width="122.951" height="130.237" viewBox="0 0 122.951 130.237">
  <path id="Tracé_677" data-name="Tracé 677" d="M234.077,283.177a2.565,2.565,0,0,0-1.632-1.158,5.364,5.364,0,0,0-1.19-.124,11.266,11.266,0,0,0-1.659.156c-.206.031-.41.061-.61.083a8.158,8.158,0,0,0-1.423.284,2.471,2.471,0,0,0-2.22-1.351,4.271,4.271,0,0,0-2.14.713,2.485,2.485,0,0,0-.628-.615,2.422,2.422,0,0,0-1.379-.425,4.675,4.675,0,0,0-3.062,1.741c-.061.061-.113.115-.153.151l-.155.136a2.545,2.545,0,0,0-.917-.634,3.764,3.764,0,0,0,.355-3.39,2.773,2.773,0,0,0-.622-.885,2.739,2.739,0,0,0-.728-2.732,6.627,6.627,0,0,0,.546-2.427c.094-2.367-.183-3.658-.955-4.465a2.412,2.412,0,0,0-1.756-.759h0a2.57,2.57,0,0,0-1.259.339q-.094,0-.184,0a2.8,2.8,0,0,0-1.677.5,2.324,2.324,0,0,0-2.009-2.116,17.524,17.524,0,0,0-.683-3.879l-.019-.066A2.642,2.642,0,0,0,205.312,260c-.078,0-.16,0-.244.011a6.022,6.022,0,0,0-1.448.349c-.119.04-.25.085-.354.115-.065-.223-.132-.443-.2-.661-.132-.435-.259-.845-.361-1.25-.071-.279-.134-.575-.19-.9a2.605,2.605,0,0,0-.629-1.62,2.413,2.413,0,0,0-1.809-.773,3.633,3.633,0,0,0-.7.076,4.351,4.351,0,0,0-.155-.552l-.064-.174c-.372-1.037-.995-2.774-2.566-3.445a3.8,3.8,0,0,0-1.516-.279h-.017a2.872,2.872,0,0,0-2.529-2.147,2.739,2.739,0,0,1-.674-.173,10.42,10.42,0,0,1-.991-.49,5.428,5.428,0,0,0-2.549-.857,2.917,2.917,0,0,0-2.815,2.259,9.426,9.426,0,0,0-.244,1.076c-.019.1-.042.231-.067.349a3.5,3.5,0,0,0-2.157.628,7.18,7.18,0,0,0-2.171,3.762l-.014.05-.091-.01-.041-.007a3.123,3.123,0,0,0-.553-.054,2.4,2.4,0,0,0-2.033,1.117,2.839,2.839,0,0,0-.419,1.412v.021c-.064.35-.153.725-.272,1.141-.073.258-.148.514-.224.77s-.146.5-.218.749c-.043-.007-.085-.013-.128-.022-.077-.024-.16-.06-.247-.094a4.481,4.481,0,0,0-1.656-.393,2.747,2.747,0,0,0-.361.023c-1.24.161-2.037,1.039-2.369,2.606-.008.04-.016.077-.024.11a19,19,0,0,0-.576,3.5,2.15,2.15,0,0,0-1.887,1.562,3.435,3.435,0,0,0-1.741-1.68,2.5,2.5,0,0,0-.916-.174c-1.413,0-2.363.989-2.822,2.941l-.02.089a9.739,9.739,0,0,0,.107,6.183,2.751,2.751,0,0,0-.8,1.4,2.976,2.976,0,0,0,.042,1.328,2.767,2.767,0,0,0-.79,1.4,4.009,4.009,0,0,0,.524,2.861,2.254,2.254,0,0,0-.86.669l-.343-.3-.293-.258c-.023-.02-.057-.054-.1-.092a4.01,4.01,0,0,0-2.671-1.4,2.438,2.438,0,0,0-1.985,1.025c-.216-.116-.44-.228-.671-.331a3.625,3.625,0,0,0-1.512-.373,2.429,2.429,0,0,0-1.79.759,2.5,2.5,0,0,0-.429.627,9.682,9.682,0,0,0-1.665-.367l-.4-.053a11.8,11.8,0,0,0-1.653-.145c-.1,0-.206,0-.309.006a3.763,3.763,0,0,0-2.874,1.379,5.433,5.433,0,0,0-.775,4.482,13.609,13.609,0,0,0,2.554,6.012,2.359,2.359,0,0,0-.666.734,2.473,2.473,0,0,0-.165,2.1,5.142,5.142,0,0,0,1.629,2.163,3.644,3.644,0,0,0-.914,2.81,4.2,4.2,0,0,0,1.837,2.886,12.156,12.156,0,0,0,1.663.971,2.683,2.683,0,0,0,.088,1.327c.013.04.028.078.042.117a2.475,2.475,0,0,0-.923,2.622c.407,1.677,2.031,2.721,3,3.344l.066.042c.381.245.758.461,1.124.67a13.783,13.783,0,0,1,1.356.845l.133.1a5.181,5.181,0,0,0,.156.739,3.778,3.778,0,0,0,3.011,2.7,2.778,2.778,0,0,0,1.566,1.627l-.122.143a4.951,4.951,0,0,0-.747,1.337c-.045.106-.1.252-.132.3a5.024,5.024,0,0,1-.891.781c-.149.114-.3.226-.435.338l-.1.083a21.192,21.192,0,0,0-2.4,2.142c-.4.43-2.346,2.693-1.593,4.931a3.279,3.279,0,0,0,2.685,2.141,10.841,10.841,0,0,0,1.57.127,7.835,7.835,0,0,1,.938.06c.368.058.535.128.846.649a8.093,8.093,0,0,1,.426.942,7.689,7.689,0,0,0,1.4,2.467,3.1,3.1,0,0,0,2.327,1,5.438,5.438,0,0,0,1.449-.237c.129-.035.289-.077.357-.088a10.4,10.4,0,0,1,1.377-.114,4.285,4.285,0,0,1,.519.028,4.187,4.187,0,0,0,.575,2.2,3.177,3.177,0,0,0,2.815,1.465,6.447,6.447,0,0,0,1.644-.251,19.917,19.917,0,0,0,3.166-1.214c.237-.107.475-.215.715-.319.045.1.088.2.123.281l.081.185c.022.049.043.106.067.167.281.705.938,2.355,2.713,2.531a2.337,2.337,0,0,0,.261.013,3.222,3.222,0,0,0,2.286-1.1c.131-.13.26-.263.389-.395.263-.271.512-.527.761-.748.42-.369.859-.724,1.324-1.1.52-.421,1.057-.856,1.583-1.326a7.543,7.543,0,0,0,2.408-3.38,7.181,7.181,0,0,1,.55-1.176c.162-.3.327-.616.486-.959-.029.308-.06.616-.1.912a20.563,20.563,0,0,1-3.87,8.4,31.656,31.656,0,0,1-3.06,3.577q-.832.835-1.711,1.615a21.669,21.669,0,0,1-1.767,1.436l2.726,3.217c.677-.682,1.208-1.3,1.78-1.967q.835-.985,1.6-2.017a38.155,38.155,0,0,0,2.846-4.282,24.6,24.6,0,0,0,3.3-9.423l.019.036a4.682,4.682,0,0,1,.2.519,6.943,6.943,0,0,0,.583,1.35,12.54,12.54,0,0,0,3.306,3.352c.278.216.552.43.811.644.635.525,1.238,1.128,1.82,1.711a3.252,3.252,0,0,0,2.292,1.084,2.7,2.7,0,0,0,1.476-.444,4.68,4.68,0,0,0,1.707-2.43c.724.33,1.472.669,2.283.947l.129.045a7.347,7.347,0,0,0,2.408.511,4.043,4.043,0,0,0,1-.122,3.463,3.463,0,0,0,2.443-3.5c.125-.013.29-.025.509-.034.1,0,.191,0,.288,0a7.577,7.577,0,0,1,1.411.13,2.306,2.306,0,0,1,.232.063,4.718,4.718,0,0,0,1.328.225,2.984,2.984,0,0,0,1.646-.476,4.707,4.707,0,0,0,1.709-2.382c.04-.1.077-.194.117-.283l.085-.194a5.776,5.776,0,0,1,.871-1.571,3.627,3.627,0,0,1,1.547-.235c.212-.007.421-.015.623-.027a2.51,2.51,0,0,0,2.082-1.189,3.4,3.4,0,0,0-.188-3.291,6.394,6.394,0,0,1-.344-.889.523.523,0,0,1-.018-.1c0-.016.012-.048.018-.077a2.9,2.9,0,0,0-1.161-3.073c-.3-.256-.625-.491-.937-.718a5.961,5.961,0,0,1-1.333-1.163,4.741,4.741,0,0,1-.236-.459,5.775,5.775,0,0,0-.78-1.3,2.8,2.8,0,0,0,1.611-1.664,3.08,3.08,0,0,0,.587-.129,3.717,3.717,0,0,0,2.393-2.564c.077-.257.123-.482.159-.662l.018-.1a6.8,6.8,0,0,1,.837-.543l.156-.092c.178-.1.365-.21.553-.317a9.194,9.194,0,0,0,3.788-3.264,2.583,2.583,0,0,0,.136-2.52,2.388,2.388,0,0,0-.713-.839,2.5,2.5,0,0,0,.1-1.47c.185-.094.369-.188.551-.289a6.1,6.1,0,0,0,2.484-2.108,3.569,3.569,0,0,0-.478-4.294c.046-.042.091-.084.135-.129l.089-.081c.644-.593,2.151-1.979,1.462-3.712a2.294,2.294,0,0,0-.9-1.1c.088-.111.17-.211.233-.291a8.4,8.4,0,0,0,.735-.994,3.5,3.5,0,0,0,.39-3.4,1.1,1.1,0,0,1-.1-.569c.012-.124.124-.594.2-.9C234.477,286.035,234.86,284.436,234.077,283.177Zm-2.262,8.209c-.5.854-3.236,3.353-1.071,3.91.236.06.751.045.86.32.179.453-.84,1.286-1.079,1.524-.408.406-1.254.912-1.458,1.483s.575.918.928,1.226a1.625,1.625,0,0,1,.553,2.123,4.211,4.211,0,0,1-1.693,1.349c-.605.33-1.243.61-1.827.974-.34.214-.654.373-.38.719.322.406.92.833.453,1.4-.4.485-1.394.542-1.967.72-.278.086-1.335.306-1.394.684-.075.478,1.235.553,1.52.583s.563.034.846.034l.505,0a8.227,8.227,0,0,1,.878.037c.539.059.754.266.464.781-.741,1.321-2.334,2.066-3.581,2.8a6.865,6.865,0,0,0-1.566,1.112c-.415.443-.378.932-.545,1.486a1.64,1.64,0,0,1-1.049,1.177,1.417,1.417,0,0,1-.435.052c-.208,0-.435-.018-.648-.018a1.021,1.021,0,0,0-.67.167c-.248.215-.093.592-.091.871a.756.756,0,0,1-.656.828,2.871,2.871,0,0,1-.743.1,7.138,7.138,0,0,1-3.532-1.447,7.675,7.675,0,0,0-4.308-1.328c-.084,0-.17,0-.255,0-1.057.03-3.122.04-3.812,1.05-.8,1.177,2.116,1.407,2.863,1.854a6.129,6.129,0,0,0,3.56,1.167h.069a12.1,12.1,0,0,1,4.876,1.345c.915.449,1,1.235,1.487,2.016a12.182,12.182,0,0,0,2.7,2.382c.985.825.148.832.472,2.141s1.469,2.7.355,2.769c-1.18.07-2.59-.045-3.508.856a7.67,7.67,0,0,0-1.405,2.414c-.253.571-.488,1.395-1.044,1.751a.923.923,0,0,1-.517.145,6.731,6.731,0,0,1-1.173-.252,9.639,9.639,0,0,0-1.8-.167c-.121,0-.243,0-.365.006-1.083.04-2.373.191-2.488,1.468-.07.784.058,1.886-.906,2.134a1.927,1.927,0,0,1-.481.057,6.05,6.05,0,0,1-1.86-.442c-.858-.295-1.676-.682-2.5-1.057-.6-.273-.81-.575-1.049-.575-.173,0-.363.159-.728.607-.605.74-.718,2.2-1.53,2.733a.606.606,0,0,1-.337.106,1.293,1.293,0,0,1-.816-.474c-.641-.641-1.265-1.264-1.966-1.844-1.25-1.034-2.8-2.028-3.651-3.453-.321-.538-.426-1.171-.706-1.734-.3-.6-.665-1.171-.911-1.8a3.688,3.688,0,0,1-.22-2.123,10.532,10.532,0,0,1,.6-2.235c.521-1.211-.069-2.479-.349-3.73a12.647,12.647,0,0,0-1.241-3.057c1.617.665,3.212,1.5,4.833,2.328l0,0a52.366,52.366,0,0,0,5.3,15.548,52.094,52.094,0,0,1-4.581-15.187,56.225,56.225,0,0,0,6.225,2.727,91.44,91.44,0,0,0,5.647,10.423,91.138,91.138,0,0,1-4.783-10.116,46,46,0,0,0,4.645,1.307,25.19,25.19,0,0,0,7.229,6.643,24.878,24.878,0,0,1-6.252-6.419q1.023.216,2.049.4a75.426,75.426,0,0,0,8.1.942,75.409,75.409,0,0,1-7.994-1.455c-.717-.175-1.429-.365-2.139-.564a22.9,22.9,0,0,1,6.87-4.134,23.187,23.187,0,0,0-7.639,3.9,44.813,44.813,0,0,1-4.776-1.692,50.765,50.765,0,0,1-5.82-2.927l9.2-1.716-10.059,1.215c-.159-.094-.318-.183-.475-.278-1.257-.746-2.53-1.52-3.866-2.228a70.912,70.912,0,0,0,11.036-2.379,69.948,69.948,0,0,1-11.7.664,77.287,77.287,0,0,0,6.912-6.154,57.168,57.168,0,0,0,11.725,1.163,115.233,115.233,0,0,0,12.205-.558,114.768,114.768,0,0,1-12.179-.141,58.488,58.488,0,0,1-10.651-1.578c2.2-2.317,4.186-4.774,6.335-7.043a28.094,28.094,0,0,0,5.358.65,42.137,42.137,0,0,0,5.5-.309q2.723-.353,5.387-.976a51.581,51.581,0,0,0,5.245-1.5,51.438,51.438,0,0,1-5.313,1.161q-2.68.446-5.382.622a41.222,41.222,0,0,1-5.381-.042,27.453,27.453,0,0,1-4.3-.739c.333-.33.669-.656,1.014-.973a43.091,43.091,0,0,1,4.9-3.949c1.013-.694,2.053-1.353,3.1-1.994a34.181,34.181,0,0,0,6.066,1.129,54.3,54.3,0,0,0,6.151.275,54.156,54.156,0,0,1-6.1-.674,35.12,35.12,0,0,1-5.209-1.27c.456-.271.906-.547,1.365-.809a114.791,114.791,0,0,1,11.4-5.619,115.414,115.414,0,0,0-11.647,5.157c-.364.188-.722.391-1.084.583a19.365,19.365,0,0,1,3.025-6.867,19.679,19.679,0,0,0-3.806,7.287c-1.25.682-2.49,1.385-3.7,2.145-.079.049-.158.1-.236.155a37.45,37.45,0,0,1,2.619-8.967,37.767,37.767,0,0,0-3.37,9.461,44.136,44.136,0,0,0-4.183,3.174c-3.286,2.792-6.024,6.107-9.047,9.01a69,69,0,0,1-5.517,4.771q.536-.9,1.106-1.787c1.047-1.624,2.16-3.221,3.278-4.818s2.243-3.194,3.327-4.823a35.694,35.694,0,0,0,2.929-5.079,35.3,35.3,0,0,1-3.351,4.769c-1.216,1.517-2.477,3-3.733,4.493s-2.515,2.99-3.727,4.543c-.769.994-1.522,2.006-2.229,3.072-.041-.776-.094-1.553-.164-2.327-.253-2.909-.722-5.759-1.067-8.595-.033-.251-.057-.5-.087-.755a72.023,72.023,0,0,1,5.931-5.888c2.231-2.029,4.5-4.039,6.66-6.175a54.961,54.961,0,0,0,5.984-6.856,34.99,34.99,0,0,0,4.363-7.953,34.855,34.855,0,0,1-4.641,7.743,54.506,54.506,0,0,1-6.186,6.558c-2.219,2.034-4.551,3.943-6.866,5.891-1.854,1.564-3.7,3.157-5.437,4.9a88.3,88.3,0,0,1-.155-14.272,33.585,33.585,0,0,1,4.007-4.5c1.477-1.44,3.01-2.843,4.487-4.312a38.865,38.865,0,0,0,4.131-4.7,17.317,17.317,0,0,0,2.778-5.572,17.159,17.159,0,0,1-3.053,5.358,38.32,38.32,0,0,1-4.332,4.4c-1.543,1.372-3.146,2.682-4.718,4.052-1.073.941-2.138,1.912-3.136,2.972.241-3.252.468-6.518.622-9.785,1.745-2.154,3.682-4.164,5.433-6.352a22.6,22.6,0,0,0,2.339-3.509,17.014,17.014,0,0,0,1.478-3.934,16.912,16.912,0,0,1-1.631,3.85,22.356,22.356,0,0,1-2.454,3.372c-1.632,1.874-3.418,3.624-5.108,5.479q.092-2.188.125-4.375.038-2.08.039-4.159l0,.006a11.906,11.906,0,0,0,3.724-3.974,18,18,0,0,0,1.919-5.037,17.808,17.808,0,0,1-2.213,4.85,11.449,11.449,0,0,1-3.437,3.333c-.02-4.1-.176-8.2-.581-12.278.281,4.088.313,8.185.208,12.279a11.448,11.448,0,0,1-3.439-3.334,17.846,17.846,0,0,1-2.213-4.85,17.961,17.961,0,0,0,1.92,5.037,11.893,11.893,0,0,0,3.712,3.966q-.061,2.072-.165,4.142c-.065,1.506-.159,3.007-.267,4.505-1.719-1.9-3.544-3.678-5.209-5.59a22.361,22.361,0,0,1-2.454-3.372,16.916,16.916,0,0,1-1.631-3.85,17.013,17.013,0,0,0,1.478,3.934A22.591,22.591,0,0,0,184.4,266.9c1.739,2.175,3.662,4.173,5.4,6.312-.265,3.405-.609,6.806-.965,10.218-2.348-2.9-4.8-5.649-7.04-8.581a37.95,37.95,0,0,1-6.19-10.8,38.342,38.342,0,0,0,5.626,11.214c2.36,3.476,5.025,6.736,7.4,10.128l.01-.006a89.683,89.683,0,0,0-.292,13.88c-1.564-1.644-3.172-3.226-4.766-4.815-2.127-2.117-4.233-4.244-6.227-6.474a54.568,54.568,0,0,1-9.878-14.921,54.9,54.9,0,0,0,9.349,15.378c1.921,2.325,3.958,4.547,6,6.747,1.927,2.078,3.865,4.138,5.678,6.281.024.283.043.565.071.848.265,2.885.644,5.731.8,8.563.055.9.081,1.807.094,2.71a42.474,42.474,0,0,0-2.906-3.834c-1.341-1.606-2.733-3.148-4.126-4.684s-2.786-3.063-4.135-4.628a32,32,0,0,1-3.689-4.967,32.341,32.341,0,0,0,3.279,5.293c1.22,1.683,2.488,3.328,3.744,4.975s2.507,3.292,3.686,4.971q.476.685.938,1.379a47.436,47.436,0,0,0-5.259-2.926,89.036,89.036,0,0,1-11.332-6.352c-.523-.361-1.041-.74-1.56-1.115-.251-1.439-.57-2.832-.941-4.225a41.232,41.232,0,0,0-1.412-4.369,25.45,25.45,0,0,0-1.978-4.135,12.891,12.891,0,0,0-2.92-3.482,12.738,12.738,0,0,1,2.615,3.651,25.007,25.007,0,0,1,1.624,4.194,40.463,40.463,0,0,1,1.051,4.375c.179.961.325,1.932.449,2.9q-1.1-.815-2.2-1.638-2.205-1.654-4.382-3.343a12.579,12.579,0,0,0,.134-2.79,11.944,11.944,0,0,0-.579-2.989,12.293,12.293,0,0,0-.57-1.407,10.911,10.911,0,0,0-.789-1.29,10.771,10.771,0,0,0-2.061-2.171,10.564,10.564,0,0,1,2.613,3.572,11.628,11.628,0,0,1,.473,1.4,11.467,11.467,0,0,1,.39,2.907,12.251,12.251,0,0,1-.208,2.314L159.2,295c-3.445-2.674-6.858-5.394-10.191-8.213,3.219,2.95,6.524,5.809,9.864,8.622.119.1.241.2.36.3a14.134,14.134,0,0,1-1.895.511,16.771,16.771,0,0,1-2.532.328,18.9,18.9,0,0,1-5.129-.374,19.115,19.115,0,0,0,5.137.776,17.168,17.168,0,0,0,2.621-.136,16.59,16.59,0,0,0,2.518-.51c1.317,1.1,2.636,2.2,3.967,3.286q1.409,1.148,2.832,2.28l0,.022a24.954,24.954,0,0,1-2.853.652,26.2,26.2,0,0,1-4.037.388,25.425,25.425,0,0,1-4.073-.245,19.938,19.938,0,0,1-3.994-.945,20.147,20.147,0,0,0,3.93,1.29,26.07,26.07,0,0,0,4.12.6,26.931,26.931,0,0,0,4.186-.046,29.923,29.923,0,0,0,4.095-.646c.314.243.622.491.941.731a76.334,76.334,0,0,0,8.293,5.286,59.766,59.766,0,0,1-10.253,1.476,114.741,114.741,0,0,1-12.177.141,115.222,115.222,0,0,0,12.2.558,56.578,56.578,0,0,0,11.96-1.214l1.185.645a40.7,40.7,0,0,1,5.436,3.364,11.035,11.035,0,0,1,2.153,2.215,33.711,33.711,0,0,0-12.039.639,32.759,32.759,0,0,1,11.2,1.139c-1.723.8-3.339,1.74-4.926,2.637a37.138,37.138,0,0,0-10.349.657,36.852,36.852,0,0,1,9.388-.125,51.2,51.2,0,0,1-5.966,2.857,24.332,24.332,0,0,0-8.659-1.337,24.03,24.03,0,0,1,7.722,1.693,53.215,53.215,0,0,1-6.844,2.027c-2.579.618-5.21,1.011-7.846,1.382,2.651-.2,5.312-.415,7.947-.867a53.47,53.47,0,0,0,7.215-1.643,27.068,27.068,0,0,1-7.046,7.823,27.367,27.367,0,0,0,7.971-8.111,53.82,53.82,0,0,0,6.684-2.718,45.6,45.6,0,0,1-.675,6.051,17.353,17.353,0,0,1-2.579,6.519,17.5,17.5,0,0,0,2.918-6.443,48.6,48.6,0,0,0,1.026-6.455,52.459,52.459,0,0,1,5.68-2.495,7.509,7.509,0,0,0-.717,4.2c.13,1.069-.111,2.936.277,3.9a3.809,3.809,0,0,1-.14,3.078A21.985,21.985,0,0,0,186.949,333a5.575,5.575,0,0,1-1.8,2.437c-.938.84-1.952,1.586-2.9,2.418-.442.389-.83.816-1.245,1.232a1.3,1.3,0,0,1-.811.484.381.381,0,0,1-.054,0c-.6-.06-.875-1-1.073-1.453a3.474,3.474,0,0,0-1.292-1.858,1.214,1.214,0,0,0-.553-.167c-.34,0-.568.243-1.055.455A25.4,25.4,0,0,1,172.536,338a4.511,4.511,0,0,1-1.113.182,1.152,1.152,0,0,1-1.05-.492,4.153,4.153,0,0,1-.282-1.788c-.126-1.141-1.382-1.409-2.577-1.409a12.077,12.077,0,0,0-1.673.135,11.357,11.357,0,0,1-1.511.3,1.034,1.034,0,0,1-.8-.333c-.748-.805-1.006-2.116-1.564-3.054a3.04,3.04,0,0,0-2.314-1.645c-.819-.129-1.66-.04-2.477-.182-2.072-.359-.8-2.621.084-3.577a20.688,20.688,0,0,1,2.28-2.013,8.415,8.415,0,0,0,1.744-1.569c.321-.465.405-1.045.772-1.491a3.122,3.122,0,0,1,2.171-.954,11.036,11.036,0,0,1,1.2-.058c.8,0,1.6.057,2.388.057a7.416,7.416,0,0,0,2.929-.488c.936-.39,4.848-2.473,3.181-3.776a5.249,5.249,0,0,0-2.7-.744c-.426-.037-.859-.065-1.292-.065a6.509,6.509,0,0,0-2.135.314c-1.914.66-3.439,2.449-5.549,2.449-.1,0-.2,0-.305-.013-.758-.062-1.1-.331-1.047-1.085.057-.831-.333-.744-1.074-.758a1.755,1.755,0,0,1-1.839-1.291,6.261,6.261,0,0,0-.274-1.132,2.512,2.512,0,0,0-.77-.783c-.814-.607-1.744-1.049-2.6-1.6-.7-.453-1.949-1.228-2.163-2.116-.124-.511.42-.6.942-.6.275,0,.545.024.7.024h.218c.684,0,2.471-.023,2.475-.578,0-.521-1.766-.845-2.115-.94-.794-.216-1.934-.593-1.16-1.583.149-.192.54-.339.5-.606-.037-.234-.521-.448-.692-.548-.84-.488-1.761-.845-2.553-1.415-.929-.668-1.382-1.67-.555-2.624.468-.539,1.707-.959,1.065-1.785s-1.945-1.42-2.311-2.449c-.2-.575.458-.524.853-.635,1.425-.4.583-1.645-.018-2.377a11.418,11.418,0,0,1-2.466-5.484c-.253-1.511-.208-3.329,1.684-3.416.071,0,.142,0,.212,0a14.755,14.755,0,0,1,1.8.184,15.36,15.36,0,0,1,3.028.88,1.14,1.14,0,0,0,.346.068c.479,0,.391-.56.36-1.129s.09-.822.405-.822a1.772,1.772,0,0,1,.663.192,14.005,14.005,0,0,1,1.676.941,2.526,2.526,0,0,0,.92.49h.049c.7,0,.316-1.284.521-1.709a.361.361,0,0,1,.338-.237c.464,0,1.149.755,1.393.97.557.488,1.109.984,1.688,1.447.217.173.607.567.917.572h.007c.77,0,.607-1.8,1.209-1.8.16,0,.373.127.672.447,1.588,1.7,2.213,4.154,3.373,6.131a7.343,7.343,0,0,0,3.621,2.868,4.636,4.636,0,0,0,1.536.6.341.341,0,0,0,.354-.2c.185-.464-.463-1.572-.6-2-.539-1.734.1-3.978-1.741-5.013a18.648,18.648,0,0,0-2.7-1.047c-.468-.174-2.292-.662-2.179-1.419.079-.528,1.169-.889,1.552-1.118.473-.283.558-.37-.012-.423a3.91,3.91,0,0,1-2.044-.65,3,3,0,0,1-1.27-2.477c.115-.5.621-.542.907-.9.5-.617-.274-1.263-.148-1.884.042-.21.272-.361.4-.524a2.945,2.945,0,0,0,.535-.918,1.269,1.269,0,0,0-.161-.969,7.485,7.485,0,0,1-.106-5.083c.09-.362.29-1.444.816-1.444a.444.444,0,0,1,.164.033c.558.216.913,1.322,1.146,1.805.253.521,1.524,3.269,2.41,3.269.213,0,.4-.161.553-.551a10.925,10.925,0,0,0,.3-3.518c.012-.413-.007-.758.189-.758a.636.636,0,0,1,.334.167,2.43,2.43,0,0,0,1.15.6.409.409,0,0,0,.3-.121c.333-.339.065-1.5.061-1.908a15.121,15.121,0,0,1,.533-3.817c.091-.37.165-1.081.634-1.142a.746.746,0,0,1,.091-.006,9.243,9.243,0,0,1,1.471.443c.416.081.84.109,1.25.222a3.8,3.8,0,0,0,.576.2c.041,0,.077,0,.107,0,.206,0,.188-.089.254-.392.221-1.024.539-2.006.824-3.012a14.131,14.131,0,0,0,.331-1.412,1.92,1.92,0,0,1,.1-.588.311.311,0,0,1,.284-.168c.106,0,.23.035.384.051a9.976,9.976,0,0,0,1.057.089,1.387,1.387,0,0,0,.77-.167c.362-.258.366-1.039.486-1.429a5.575,5.575,0,0,1,1.412-2.693,1.5,1.5,0,0,1,.924-.22l.308,0a2.844,2.844,0,0,0,.369-.019c1.427-.186,1.29-1.786,1.628-2.891.174-.569.456-.777.817-.777.7,0,1.685.767,2.769,1.2,1.413.563,1.719-.025,2.052,1.244.131.5.3.966.823,1.146a1.953,1.953,0,0,0,.644.086c.158,0,.315-.007.472-.007a1.755,1.755,0,0,1,.7.111c.8.341,1.22,1.687,1.484,2.412.164.448.19,1.4.53,1.757a1.229,1.229,0,0,0,.861.233c.33,0,.668-.045.879-.06.147-.011.366-.078.551-.078a.35.35,0,0,1,.271.094c.083.092.077.374.1.485.064.382.14.76.235,1.134.273,1.078.671,2.117.9,3.207.053.255.026.648.3.7l.024,0a2.471,2.471,0,0,0,.527-.2,6.744,6.744,0,0,1,1.014-.2c.6-.091,1.211-.427,1.807-.479l.061,0c.423,0,.506.412.615.793a15.1,15.1,0,0,1,.617,3.7c.011.473-.014.944-.034,1.418a1.892,1.892,0,0,0,.031.822.393.393,0,0,0,.374.221,1.919,1.919,0,0,0,.93-.4c.22-.157.4-.366.531-.366.087,0,.15.092.188.351.085.587-.121,4.5.93,4.5a1.044,1.044,0,0,0,.678-.4,9.4,9.4,0,0,0,1.507-2.5.6.6,0,0,1,.628-.316c.13,0,.268.011.408.011a1.025,1.025,0,0,0,.666-.187.617.617,0,0,1,.369-.159c.747,0,.645,2.483.623,3.042a4.572,4.572,0,0,1-.416,1.764,1.8,1.8,0,0,0-.291.966,2.219,2.219,0,0,0,.435.9c.128.185.442.411.517.617.206.564-.529,1.223-.224,1.838.206.412.771.46.96.889.326.738-.435,1.9-.93,2.385a3.44,3.44,0,0,1-2.111.879c-.067.006-.138.007-.206.007h-.124c-.231,0-.381.018-.182.265.414.508,1.363.514,1.731,1.1.452.719-1.086,1.211-1.518,1.386-1.5.607-2.073,1.344-2.642,3.134-.325,1.02-1.968,1.7-2.248,2.741a9.34,9.34,0,0,0-.716,2.246c.008.267.15.357.344.357a3.056,3.056,0,0,0,1-.345,16.439,16.439,0,0,0,2.5-1.286c1.542-1.03,2.206-2.868,2.974-4.477.191-.4,1.773-3.933,2.758-3.932a.417.417,0,0,1,.315.152c.342.379.161,1.454.715,1.64a.317.317,0,0,0,.1.016,1.458,1.458,0,0,0,.694-.367c.544-.4,1.048-.855,1.553-1.3.283-.249,1.25-1.362,1.825-1.362a.345.345,0,0,1,.2.058c.53.365-.167,1.66.488,1.913a.291.291,0,0,0,.106.017c.677,0,2.517-1.66,3.354-1.66.255,0,.418.153.425.557.01.473-.289,1.427.34,1.427a.8.8,0,0,0,.144-.013,7.064,7.064,0,0,0,1.176-.461,7.007,7.007,0,0,1,1.776-.454,19.7,19.7,0,0,1,2.05-.227,3.417,3.417,0,0,1,.739.074c1.089.243-.143,3.349-.176,4.35C231.762,290.145,232.688,289.9,231.816,291.387ZM188.561,317.26l-.017.006.006-.024ZM167.182,318a6.991,6.991,0,0,1,1.3-.667,4.476,4.476,0,0,1,1.454-.2c.285,0,.6.014.984.046a8.495,8.495,0,0,1-.978.5,5.38,5.38,0,0,1-2.127.326C167.6,318.011,167.394,318.007,167.182,318Zm2.29-29.715a6.58,6.58,0,0,1,1,.427c.229.129.3.427.4,1.592l.014.169a3.394,3.394,0,0,1-.767-.907C169.9,289.173,169.683,288.742,169.473,288.287Zm20.757,47.8a23.05,23.05,0,0,1-3.873,6.386,29.966,29.966,0,0,1-5.406,5.074c.909-.834,1.792-1.692,2.619-2.6a35.473,35.473,0,0,0,2.373-2.805,26.105,26.105,0,0,0,3.639-6.3,15.433,15.433,0,0,0,.917-3.5,27.7,27.7,0,0,0,.144-3.651q.011-1.85-.047-3.7c-.01-1.234-.067-2.467-.1-3.7.189,1.223.315,2.454.444,3.686q.153,1.85.243,3.706c.032.618.051,1.238.058,1.857a13.644,13.644,0,0,1-.088,1.891A15.688,15.688,0,0,1,190.23,336.084Z" transform="matrix(0.921, -0.391, 0.391, 0.921, -229.95, -135.936)" fill="rgba(22,30,46,0.64)"/>
</svg>
