<svg xmlns="http://www.w3.org/2000/svg" width="53" height="52.684" viewBox="0 0 53 52.684">
  <g id="Groupe_789" data-name="Groupe 789" transform="translate(-316.254 -184.473)">
    <path id="Tracé_678" data-name="Tracé 678" d="M418.185,211.226c.012.064.2.049.195-.016-1.029-14.261-13.96-26.65-28.3-26.737-.056,0-.19.072-.067.09,6.792,1,13.2,3.324,18.357,8C413.81,197.49,416.873,204.086,418.185,211.226Z" transform="translate(-49.354)" fill="rgba(22,30,46,0.65)"/>
    <path id="Tracé_679" data-name="Tracé 679" d="M443.825,264.363c-2.331.316-4.641.884-6.937,1.392a7.263,7.263,0,0,0-4.007,1.858c-.771.778-2.072,2.543-3.278,1.671-.5-.362-.5-1.493-.544-2.4a1.358,1.358,0,0,1-.131-1.031c-.031-.113-.061-.226-.1-.34a2.151,2.151,0,0,1-.494.405,7.221,7.221,0,0,1,.5,3.075c.26.177.5.367.746.535a3.1,3.1,0,0,0,3.086-1.01c1.532-1.547,1.238-1.666,2.768-2.081.884-.24,1.793-.411,2.687-.613,1.925-.433,3.864-.859,5.755-1.425C443.927,264.388,443.844,264.36,443.825,264.363Z" transform="translate(-75.052 -53.494)" fill="rgba(22,30,46,0.65)"/>
    <path id="Tracé_680" data-name="Tracé 680" d="M438.036,269.436a15.405,15.405,0,0,0-1.141-1.62c-.245-.206-.487-.406-.738-.584a2.41,2.41,0,0,1-.571-.016,13.76,13.76,0,0,1,2.065,2.454C437.733,269.8,438.113,269.562,438.036,269.436Z" transform="translate(-79.905 -55.406)" fill="rgba(22,30,46,0.65)"/>
    <path id="Tracé_681" data-name="Tracé 681" d="M413.482,270.52c.5.461.969.951,1.413,1.446.046-.038.091-.076.142-.111a1.047,1.047,0,0,1,.269-.13c-.158-.232-.33-.454-.508-.671A5.337,5.337,0,0,0,413.482,270.52Z" transform="translate(-65.104 -57.617)" fill="rgba(22,30,46,0.65)"/>
    <path id="Tracé_682" data-name="Tracé 682" d="M402.656,275.278c-.056.072-.112.145-.176.212l-.738.869a17.516,17.516,0,0,1-1.307,1.29c-1.11.989-3.842,3.441-5.076,1.733-1.332-1.845,2.213-4.068,2.569-5.918a2.413,2.413,0,0,0-.08-1.222,2.227,2.227,0,0,1-.126.739,1.415,1.415,0,0,1-.2.354,3.276,3.276,0,0,1-.322.706,19.371,19.371,0,0,1-1.921,2.966c-.531.865-.99,2.291,0,3.05.8.617,1.924.124,2.694-.286a15.4,15.4,0,0,0,4.969-4.412A1.35,1.35,0,0,1,402.656,275.278Z" transform="translate(-52.526 -58.77)" fill="rgba(22,30,46,0.65)"/>
    <path id="Tracé_683" data-name="Tracé 683" d="M424.251,275.126a1.99,1.99,0,0,0-.637.138,1.3,1.3,0,0,1,.143.259,1.617,1.617,0,0,1,.885,0c.477.133.739.484,1.145.726.027.017.163.034.158-.026C425.88,275.48,424.9,275.1,424.251,275.126Z" transform="translate(-71.889 -60.701)" fill="rgba(22,30,46,0.65)"/>
    <path id="Tracé_684" data-name="Tracé 684" d="M352.651,276.913c-7.558.842-15.069,1.909-22.666,2.476-.179.014-.513.506-.244.491a164.585,164.585,0,0,0,22.653-2.6C352.481,277.154,352.569,277.033,352.651,276.913Z" transform="translate(-8.964 -61.898)" fill="rgba(22,30,46,0.65)"/>
    <path id="Tracé_685" data-name="Tracé 685" d="M362.732,233.989c-.921-3.331-5.324-5.182-8.464-4.185a.424.424,0,0,0-.3.107c-.383.569-1.808,1.935-1.294,2.714.247.375,1.053.385,1.408.505a5.933,5.933,0,0,1,3.191,2.437c.11.163.34-.1.394-.2.668-1.21,2.141,1.292,2.593,1.489a1.665,1.665,0,0,0,1.4-.02A2.324,2.324,0,0,0,362.732,233.989Zm-.739,2.14a1.538,1.538,0,0,1-1.068.529,1.015,1.015,0,0,1-.872-.524,4.048,4.048,0,0,1-.364-.511c-.206-.348-.229-1.205-.671-1.435-.691-.359-1.168.194-1.487.749a9.8,9.8,0,0,0-2.617-1.8,8.487,8.487,0,0,1-1.133-.38c-1.2-.95-.017-2.1.5-2.868,3.089-.163,6.449.661,7.84,3.792q.115.38.229.759a.931.931,0,0,1,.153.569A1.776,1.776,0,0,1,361.992,236.129Z" transform="translate(-24.312 -30.173)" fill="rgba(22,30,46,0.65)"/>
    <path id="Tracé_686" data-name="Tracé 686" d="M356.325,200.389c3.574-5.185,7.315-10.193,11.132-15.2.082-.107-.231-.055-.288.014a151.806,151.806,0,0,0-11.175,15.232C355.911,200.563,356.265,200.476,356.325,200.389Z" transform="translate(-26.602 -0.439)" fill="rgba(22,30,46,0.65)"/>
    <path id="Tracé_687" data-name="Tracé 687" d="M324.048,251.937c1.634-2.305,3.162-4.69,4.727-7.041a79.778,79.778,0,0,0,4.65-7.126c.023-.043-.1-.049-.122-.02-1.705,2.121-3.118,4.514-4.63,6.775-1.657,2.476-3.364,4.929-4.949,7.452C323.642,252.108,323.991,252.02,324.048,251.937Z" transform="translate(-4.994 -35.663)" fill="rgba(22,30,46,0.65)"/>
    <path id="Tracé_688" data-name="Tracé 688" d="M324.635,281.562c.093-.042.185-.085.277-.129a.641.641,0,0,0,.161.493c.2.227.39.163.67.165.054,0,.094-.048.018-.058s-.309-.31-.342-.366a.619.619,0,0,1-.071-.539c.043-.139-.155-.081-.21-.057l-.3.131a1.444,1.444,0,0,0-.715-.733c-.106-.043-.472.136-.336.253a2.345,2.345,0,0,1,.688.83C324.5,281.6,324.6,281.578,324.635,281.562Z" transform="translate(-5.027 -64.275)" fill="rgba(22,30,46,0.65)"/>
    <path id="Tracé_689" data-name="Tracé 689" d="M316.736,300.878a5.591,5.591,0,0,0,.636.977.17.17,0,0,0,.023-.1,39.07,39.07,0,0,1-.555-10.527,37.958,37.958,0,0,1,.709-4.666c.364-1.684,1.035-3.32,1.34-5.007.007-.037-.1-.042-.116-.014-1.572,3.009-2.117,6.831-2.391,10.179A38.226,38.226,0,0,0,316.736,300.878Z" transform="translate(0 -64.984)" fill="rgba(22,30,46,0.65)"/>
    <path id="Tracé_690" data-name="Tracé 690" d="M323.015,303.205c.23-2.63.156-5.292.349-7.93.224-3.061.728-6.078,1.022-9.128,0-.036-.1-.044-.11-.007a61.526,61.526,0,0,0-1.114,8.513,49.736,49.736,0,0,0-.266,8.545C322.9,303.238,323.011,303.245,323.015,303.205Z" transform="translate(-4.38 -68.061)" fill="rgba(22,30,46,0.65)"/>
    <path id="Tracé_691" data-name="Tracé 691" d="M452.056,281.977a69.475,69.475,0,0,0,4.433-8.281c1.4-3.091,2.981-6.534,3.47-9.913,0-.026-.066-.032-.076-.01-1.2,2.868-2,5.891-3.231,8.756a74.035,74.035,0,0,1-4.858,9.264C451.586,282.135,451.837,282.327,452.056,281.977Z" transform="translate(-90.706 -53.091)" fill="rgba(22,30,46,0.65)"/>
    <path id="Tracé_692" data-name="Tracé 692" d="M411.135,318.727c1.062-3.313,2.275-.693,3.484-.111a4.65,4.65,0,0,0,2.494.2,56.545,56.545,0,0,0,7.316-1.306c.115-.028.292-.245.068-.206-1.645.3-3.286.6-4.944.813-.813.1-1.642.237-2.462.265a4.2,4.2,0,0,1-2.09-.344c-.554-.311-.889-.941-1.37-1.333-1.609-1.314-2.569.794-2.871,2.12C410.715,319.012,411.1,318.844,411.135,318.727Z" transform="translate(-63.279 -88.262)" fill="rgba(22,30,46,0.65)"/>
    <path id="Tracé_693" data-name="Tracé 693" d="M390.773,324.642a17.987,17.987,0,0,0,4.249-.823c.009,0-.009-.011-.013-.011a34.2,34.2,0,0,0-3.775.351,20.668,20.668,0,0,0-4.087.355c-.03.008-.191.088-.094.126A8.347,8.347,0,0,0,390.773,324.642Z" transform="translate(-47.387 -93.291)" fill="rgba(22,30,46,0.65)"/>
    <path id="Tracé_694" data-name="Tracé 694" d="M374.281,310.448c-.246.195-.091.39.157.192.922-.735.218-1.278-.643-1.581-.822-.291-1.717-.134-2.022-1.219-.276-.98,1.282-2.794,1.973-3.4,1.125-.991,3.646-2.328,4.674-.621a3.787,3.787,0,0,1-.54,4.2c-.4.449-1.818,1.021-1.954,1.766-.116.642.363.8.855.607.134-.054-.035-.108-.107-.086q-.2-.908.369-1.26c.137-.09.274-.183.408-.279a11.41,11.41,0,0,0,1.038-1.128,4.673,4.673,0,0,0,.782-2.445c.04-1.979-1.249-3.162-3.137-2.456-1.676.629-3.745,1.855-4.585,3.5a2.374,2.374,0,0,0-.056,2.266,1.663,1.663,0,0,0,.572.626C372.411,309.345,375.029,309.858,374.281,310.448Z" transform="translate(-36.814 -79.051)" fill="rgba(22,30,46,0.65)"/>
    <path id="Tracé_695" data-name="Tracé 695" d="M381.52,326.69s-.012-.01-.015-.006S381.517,326.694,381.52,326.69Z" transform="translate(-43.692 -95.224)" fill="rgba(22,30,46,0.65)"/>
    <path id="Tracé_696" data-name="Tracé 696" d="M317.548,330.691a.194.194,0,0,0-.126,0,5.638,5.638,0,0,0,.846,1.3,2.871,2.871,0,0,0,1.456.111,47.958,47.958,0,0,0,6.076-1.716c4.329-1.251,8.608-2.628,12.91-3.962.138-.043.028-.114-.067-.089-3.753.968-7.508,1.9-11.246,2.924-1.849.507-3.692,1.034-5.537,1.555a12.725,12.725,0,0,1-2.181.548A3.029,3.029,0,0,1,317.548,330.691Z" transform="translate(-0.782 -94.987)" fill="rgba(22,30,46,0.65)"/>
    <path id="Tracé_697" data-name="Tracé 697" d="M336.628,320.211a3.268,3.268,0,0,0,2.991-1.6.119.119,0,0,0,.065-.016,1.509,1.509,0,0,0-.961-2.639,3.285,3.285,0,0,0-2.983,1.693C335.082,318.684,335.263,319.977,336.628,320.211Zm-.615-2.483a2.657,2.657,0,0,1,2.748-1.509,1.4,1.4,0,0,1,.816,2.287c-.839.752-2.2,2.076-3.355,1.248A1.475,1.475,0,0,1,336.013,317.728Z" transform="translate(-12.801 -88.028)" fill="rgba(22,30,46,0.65)"/>
    <path id="Tracé_698" data-name="Tracé 698" d="M347.8,294.883c.1-.063-.1-.08-.143-.063a2.7,2.7,0,0,1-2.058.238q-1.236.339-1.439-.731a1.589,1.589,0,0,1-.069-.657,5.345,5.345,0,0,1,.81-2.493,2.086,2.086,0,0,1,3.342-.178,1.824,1.824,0,0,1-.348,2.89c-.021.012.027.025.036.021a1.884,1.884,0,0,0,.5-3.2,2.375,2.375,0,0,0-3.57.034c-.821,1.1-1.809,3.386-.422,4.455C345.452,295.98,346.841,295.468,347.8,294.883Z" transform="translate(-18.409 -70.607)" fill="rgba(22,30,46,0.65)"/>
    <path id="Tracé_699" data-name="Tracé 699" d="M357.658,309.121c.887.124,1.466-.923,1.757-1.6.38-.88.154-1.868-.928-2a2.957,2.957,0,0,0-2.4,1.195s0,0,0,0a1.246,1.246,0,0,0-.245-.089c-.015,0-.139,0-.106.038a9.457,9.457,0,0,1,.977,1.657A1.4,1.4,0,0,0,357.658,309.121Zm-.713-1.091c-.229-.492-.357-.992-.778-1.255a.179.179,0,0,0,.08-.015c.721-.533,1.608-1.409,2.548-.8.706.461.46,1.308.136,1.921-.22.416-.612,1.2-1.226,1.016C357.337,308.792,357.093,308.348,356.946,308.03Z" transform="translate(-26.43 -81.047)" fill="rgba(22,30,46,0.65)"/>
    <path id="Tracé_700" data-name="Tracé 700" d="M380.794,287.1a2.2,2.2,0,0,0,1.521-2.123c0-.069-.179-.039-.2.007-.26.568-.341,1.295-.862,1.707a.894.894,0,0,1-1.478-.483,1.974,1.974,0,0,1,.28-1.288c.263-.464.7-.944,1.377-.69a.843.843,0,0,1,.565.657c0,.031.093.04.094.011a.958.958,0,0,0-1.4-.818,2.22,2.22,0,0,0-1.276,1.947A1.048,1.048,0,0,0,380.794,287.1Z" transform="translate(-42.291 -66.645)" fill="rgba(22,30,46,0.65)"/>
    <path id="Tracé_701" data-name="Tracé 701" d="M418.41,295.666c.989.585,2.239-.083,3-.735.074-.065-.146-.06-.18-.04-.842.487-2.218,1.307-2.894.223a1.768,1.768,0,0,1,0-1.582c.383-.919,1.4-1.927,2.531-1.461a1.227,1.227,0,0,1,.56,1.829c-.022.028.084.047.105.021a1.274,1.274,0,0,0-.958-2.124,2.545,2.545,0,0,0-2.208,1.161C417.8,293.723,417.405,295.072,418.41,295.666Z" transform="translate(-67.991 -71.858)" fill="rgba(22,30,46,0.65)"/>
    <path id="Tracé_702" data-name="Tracé 702" d="M417.625,222.29c.086-.031.121-.077.119-.114.031,0,.058-.011.057-.03A10.6,10.6,0,0,0,413,214.5c-1.042-.7-3.7-2.355-4.885-.941-.681.814.067,1.973.422,2.761a14.638,14.638,0,0,0,2.481,4.061A6.133,6.133,0,0,0,417.625,222.29Zm-7.009-3.024a15.363,15.363,0,0,1-1.46-2.6c-.51-1.1-1.855-3.378.516-3.225,2,.129,4.319,2.156,5.5,3.583a14.356,14.356,0,0,1,2.482,5.1.271.271,0,0,0-.091.015C414.8,223.09,412.2,221.44,410.616,219.267Z" transform="translate(-61.324 -19.108)" fill="rgba(22,30,46,0.65)"/>
    <path id="Tracé_703" data-name="Tracé 703" d="M384.4,214.138c.679-.056,1.712-.612,1.756-1.378.006-.085-.208-.018-.232.024-.429.7-1,1.412-1.946,1.1a1.6,1.6,0,0,1-1.1-1.267,1.284,1.284,0,0,1,1.23-1.5,1.531,1.531,0,0,1,1.262,1.246c.007.047.14.05.145,0a1.163,1.163,0,0,0-.43-1.121,1.463,1.463,0,0,0-1.092-.334,1.711,1.711,0,0,0-1.478,1.667A1.729,1.729,0,0,0,384.4,214.138Z" transform="translate(-44.373 -17.696)" fill="rgba(22,30,46,0.65)"/>
    <path id="Tracé_704" data-name="Tracé 704" d="M457.336,244.391a.071.071,0,0,0,.029-.063l0-.012c-.009-.042-.085-.04-.116-.03-.362.12-.671.317-1.052.1a.679.679,0,0,1-.289-.808c.123-.387.5-.414.784-.181a.8.8,0,0,1,.284.655c0,.051.131.042.15.008a.743.743,0,0,0-.377-1.005.907.907,0,0,0-1.072.335.839.839,0,0,0,.116,1.187A1.336,1.336,0,0,0,457.336,244.391Z" transform="translate(-93.228 -39.18)" fill="rgba(22,30,46,0.65)"/>
    <path id="Tracé_705" data-name="Tracé 705" d="M365.363,267.063a1.444,1.444,0,0,0,1.587-.966c.021-.107-.24-.042-.271.03a1.257,1.257,0,0,1-2.249.1,2.725,2.725,0,0,1-.409-1.748c.114-1.124,1.224-1.226,1.914-.574a6.4,6.4,0,0,1,.994,1.792c.005.01.049.023.049.006-.015-1.1-.622-2.488-1.9-2.49a1.458,1.458,0,0,0-1.408,1.7A2.181,2.181,0,0,0,365.363,267.063Z" transform="translate(-31.748 -52.724)" fill="rgba(22,30,46,0.65)"/>
    <path id="Tracé_706" data-name="Tracé 706" d="M432.218,266.7a5.755,5.755,0,0,0-.99-.681,4.451,4.451,0,0,0-1.093-.138,1.136,1.136,0,0,0-1.136,1.2c-.012.19.249.208.315.059a.782.782,0,0,1,.045-.229c.132-.654.742-.783,1.372-.62.228.059.47.065.7.127.19.052.359.325.507.45A.172.172,0,0,0,432.218,266.7Z" transform="translate(-75.494 -54.511)" fill="rgba(22,30,46,0.65)"/>
    <path id="Tracé_707" data-name="Tracé 707" d="M430.484,265.85c-.281-.015-.556-.009-.769-.021a1.37,1.37,0,0,0-.966.393.671.671,0,0,0-.21.261.5.5,0,0,0-.191.519.167.167,0,0,0,.3.039,1.1,1.1,0,0,0,.1-.307c.058-.064.128-.124.16-.155a.148.148,0,0,0,.049-.124,1.531,1.531,0,0,1,.6-.3c.488-.052,1.774-.088,1.921.514a.163.163,0,0,0,.308.016A4.968,4.968,0,0,0,430.484,265.85Z" transform="translate(-75.043 -54.475)" fill="rgba(22,30,46,0.65)"/>
    <path id="Tracé_708" data-name="Tracé 708" d="M433.091,277.041c-.315.342-.759.425-1.123.694-.589.436-1.309-.28-1.7-.612-.161-.137-.4.1-.234.233a3.175,3.175,0,0,0,.736.6,2.176,2.176,0,0,0,1.007.182c.321-.009.559-.3.853-.394a1.433,1.433,0,0,0,.694-.475C433.469,277.118,433.236,276.884,433.091,277.041Z" transform="translate(-76.151 -61.949)" fill="rgba(22,30,46,0.65)"/>
    <path id="Tracé_709" data-name="Tracé 709" d="M416.4,272.63a3.869,3.869,0,0,0-.785-1.327,4.175,4.175,0,0,0-.875-.387.171.171,0,0,0,.043.047,3.482,3.482,0,0,1,.576.552.162.162,0,0,0-.016.173c.235.477.8.837.8,1.409a7.085,7.085,0,0,1-.02.963c-.031.225-.2.37-.228.6-.018.157.186.2.282.117a1.864,1.864,0,0,0,.279-1.942A.95.95,0,0,0,416.4,272.63Z" transform="translate(-65.949 -57.883)" fill="rgba(22,30,46,0.65)"/>
    <path id="Tracé_710" data-name="Tracé 710" d="M406.889,270.385a1.622,1.622,0,0,0-.174-.138c-.387-.152-.807-.264-1.213-.393-.215-.019-.432-.025-.645-.025-.514,0-1.39-.3-1.745.227a1.728,1.728,0,0,0-.183.358,2.49,2.49,0,0,1-.129.894,1.565,1.565,0,0,1-.1.205,2.1,2.1,0,0,1-.385,1.007c-.13.165.1.4.234.233a2.707,2.707,0,0,0,.5-.981c.21-.7-.159-1.706,1-1.664.48.018.967.047,1.445.092.554.052,2,.682,2.065,1.445.019.21.349.212.33,0C407.833,271.029,407.31,270.778,406.889,270.385Z" transform="translate(-57.604 -57.098)" fill="rgba(22,30,46,0.65)"/>
    <path id="Tracé_711" data-name="Tracé 711" d="M399.265,274.335a1.462,1.462,0,0,1-.768.626,3.494,3.494,0,0,1-1.2.242c-.213-.007-.213.323,0,.33a3.7,3.7,0,0,0,1.376-.286,1.721,1.721,0,0,0,.873-.746A.165.165,0,0,0,399.265,274.335Z" transform="translate(-54.163 -60.118)" fill="rgba(22,30,46,0.65)"/>
    <path id="Tracé_712" data-name="Tracé 712" d="M419.039,273.14a1.616,1.616,0,0,1-1.327-.108,9.835,9.835,0,0,1-1.2-.841c-.164-.133-.4.1-.234.233a9.907,9.907,0,0,0,1.562,1.059,1.861,1.861,0,0,0,1.284-.025C419.335,273.415,419.247,273.1,419.039,273.14Z" transform="translate(-66.941 -58.71)" fill="rgba(22,30,46,0.65)"/>
    <path id="Tracé_713" data-name="Tracé 713" d="M350.617,235.575a4,4,0,0,1-.546.9,4.468,4.468,0,0,1-.6,1.093.165.165,0,0,0,.234.234,1.972,1.972,0,0,0,.4-.534c.11-.215.109-.472.287-.657a1.53,1.53,0,0,0,.276-.469c.075-.173.22-.288.267-.477C350.987,235.456,350.668,235.368,350.617,235.575Z" transform="translate(-22.21 -34.139)" fill="rgba(22,30,46,0.65)"/>
  </g>
</svg>
