<svg xmlns="http://www.w3.org/2000/svg" width="134.87" height="36.872" viewBox="0 0 134.87 36.872">
  <g id="Groupe_915" data-name="Groupe 915" transform="translate(-178.513 -351.016)">
    <path id="Tracé_759" data-name="Tracé 759" d="M450.636,387.1a3.75,3.75,0,0,1-3.487,3.739,3.811,3.811,0,0,1-1.107-.086.178.178,0,0,1-.16-.152,3.761,3.761,0,0,1,3.069-4.555,4,4,0,0,1,1.448.051.162.162,0,0,1,.141.146A4.256,4.256,0,0,1,450.636,387.1Z" transform="translate(-217.769 -28.505)" fill="#c9966f"/>
    <g id="Groupe_914" data-name="Groupe 914" transform="translate(178.513 351.016)">
      <g id="Groupe_912" data-name="Groupe 912" transform="translate(0 0)">
        <path id="Tracé_760" data-name="Tracé 760" d="M178.513,401.517A4.082,4.082,0,1,1,182.6,405.6,4.075,4.075,0,0,1,178.513,401.517Z" transform="translate(-178.513 -388.842)" fill="#c9966f"/>
        <path id="Tracé_761" data-name="Tracé 761" d="M289.741,401.519a4.076,4.076,0,1,1-4.065-4.08A4.073,4.073,0,0,1,289.741,401.519Z" transform="translate(-262.499 -388.842)" fill="#c9966f"/>
        <path id="Tracé_762" data-name="Tracé 762" d="M232.754,403.3q0,.852,0,1.7c0,.216,0,.223-.209.13a3.934,3.934,0,0,1-2.43-3.106,4.071,4.071,0,1,1,8.077-.321,3.935,3.935,0,0,1-2.474,3.428c-.089.041-.139.062-.168.055s-.038-.066-.038-.191c0-1.142,0-2.285,0-3.428,0-.152-.04-.2-.194-.2q-1.181.011-2.363,0c-.156,0-.21.034-.207.2C232.76,402.147,232.754,402.721,232.754,403.3Z" transform="translate(-220.509 -388.692)" fill="#c9966f"/>
        <path id="Tracé_763" data-name="Tracé 763" d="M265.35,447.641c-.012-.549.031-1.228-.021-1.9a3.557,3.557,0,0,0-1.376-2.587c-.135-.109-.114-.149,0-.242a4.08,4.08,0,0,1,5.427.4,4.086,4.086,0,0,1-2.443,6.884,3.651,3.651,0,0,1-1.442-.081.168.168,0,0,1-.153-.2C265.353,449.2,265.35,448.486,265.35,447.641Z" transform="translate(-248.054 -425.201)" fill="#c9966f"/>
        <path id="Tracé_764" data-name="Tracé 764" d="M208.437,450.21a4.082,4.082,0,0,1-.685-8.12,4.012,4.012,0,0,1,3.11.827c.076.058.145.09.019.189a3.667,3.667,0,0,0-1.435,3.033c0,1.239,0,2.478,0,3.717,0,.162-.047.225-.2.257A4.117,4.117,0,0,1,208.437,450.21Z" transform="translate(-199.493 -425.186)" fill="#c9966f"/>
        <g id="Groupe_911" data-name="Groupe 911" transform="translate(9.532 25.112)">
          <g id="Groupe_910" data-name="Groupe 910">
            <path id="Tracé_765" data-name="Tracé 765" d="M237.935,489.393l-.022-.059a4.875,4.875,0,0,0-.482-.946c-.026-.041-.054-.08-.081-.119a3.749,3.749,0,0,0-1.841-1.387c-.057-.022-.117-.043-.176-.061s-.113-.035-.17-.05l-.113-.028a.016.016,0,0,0-.013,0c-.044-.011-.089-.02-.135-.03a.007.007,0,0,0-.006,0c-.15-.031-.306-.057-.465-.076a.813.813,0,0,1-.1-.022h-.576a8.054,8.054,0,0,0-.841.17,4.031,4.031,0,0,0-2.787,2.81,3.33,3.33,0,0,0-.135,1.274,4.7,4.7,0,0,0,.382,1.452c.083.194.169.387.257.578a33.182,33.182,0,0,0,3.039,5.006c.113.161.356.47.356.47h.069c.369-.517.748-1.028,1.106-1.554a28.312,28.312,0,0,0,2.028-3.385c.063-.128.124-.257.182-.387.209-.457.394-.924.567-1.4a2.92,2.92,0,0,0,.167-.726A3.392,3.392,0,0,0,237.935,489.393Zm-2.328.432a1.511,1.511,0,1,1-1.515-1.511A1.515,1.515,0,0,1,235.607,489.824Z" transform="translate(-229.983 -486.609)" fill="#c9966f"/>
            <path id="Tracé_766" data-name="Tracé 766" d="M237.974,489.482a3.966,3.966,0,0,0-.5-1.006c-.026-.041-.054-.08-.081-.119a4.054,4.054,0,0,0-1.841-1.387c-.057-.022-.117-.043-.176-.061s-.113-.035-.17-.05l-.113-.028a.016.016,0,0,0-.013,0c-.044-.011-.089-.02-.135-.03a.007.007,0,0,0-.006,0,3.968,3.968,0,0,0-.776-.078,4.069,4.069,0,0,0-4.128,4.054c0,.061,0,.12,0,.18a4.031,4.031,0,0,0,.639,2.03,4.087,4.087,0,0,0,6.778.15,4,4,0,0,0,.733-2.122c0-.061.006-.124.006-.187A4.111,4.111,0,0,0,237.974,489.482Zm-3.837,1.943a1.511,1.511,0,1,1,1.509-1.511A1.51,1.51,0,0,1,234.137,491.425Z" transform="translate(-230.022 -486.699)" fill="#c9966f"/>
          </g>
        </g>
        <path id="Tracé_767" data-name="Tracé 767" d="M260.511,356.3a4.817,4.817,0,0,1-4.48,4.8,4.9,4.9,0,0,1-1.422-.111.228.228,0,0,1-.206-.2,4.832,4.832,0,0,1,3.942-5.852,5.14,5.14,0,0,1,1.86.066.208.208,0,0,1,.181.187A5.459,5.459,0,0,1,260.511,356.3Z" transform="translate(-240.242 -354.176)" fill="#2e3745"/>
        <path id="Tracé_768" data-name="Tracé 768" d="M212.623,351.017a5.39,5.39,0,0,1,5.395,4.992,5.483,5.483,0,0,1-.118,1.591.256.256,0,0,1-.218.231,5.407,5.407,0,0,1-6.566-4.385,5.746,5.746,0,0,1,.065-2.081.232.232,0,0,1,.209-.2A6.107,6.107,0,0,1,212.623,351.017Z" transform="translate(-205.025 -351.017)" fill="#2e3745"/>
      </g>
      <g id="Groupe_913" data-name="Groupe 913" transform="translate(32.872 8.338)">
        <path id="Tracé_769" data-name="Tracé 769" d="M360.167,399.929l3.245,11.224h.072l3.317-11.224h3.99L365.5,415.912h-4.278l-5.215-15.983Z" transform="translate(-356.009 -399.208)" fill="#2e3745"/>
        <path id="Tracé_770" data-name="Tracé 770" d="M446.214,419.915V432.2h-4.038V419.915Z" transform="translate(-426.218 -415.493)" fill="#2e3745"/>
        <path id="Tracé_771" data-name="Tracé 771" d="M475.266,418.223h3.317l.24,1.3a4.127,4.127,0,0,1,3.509-1.682c2.355,0,3.845,1.322,3.845,4.254v8.412h-4.014V422.79c0-1.13-.144-1.875-1.106-1.875a1.587,1.587,0,0,0-1.538,1.779v7.811h-3.99v-9.83Z" transform="translate(-453.18 -413.801)" fill="#2e3745"/>
        <path id="Tracé_772" data-name="Tracé 772" d="M543.784,424.689c0-3.485,2.091-6.85,6.177-6.85,2.523,0,4.206,1.226,4.206,3.773,0,3.461-3.749,4.206-6.3,4.35a2.236,2.236,0,0,0,2.379,1.947,5.449,5.449,0,0,0,2.956-1.033l1.082,2.644a8.106,8.106,0,0,1-4.615,1.37C545.466,430.89,543.784,428.342,543.784,424.689Zm6.922-3.052a.921.921,0,0,0-.985-.985c-1.2,0-1.947,1.13-2.019,2.788C549,423.367,550.706,422.814,550.706,421.637Z" transform="translate(-509.008 -413.801)" fill="#2e3745"/>
        <path id="Tracé_773" data-name="Tracé 773" d="M608.8,428.135v-8.22h4.038v7.739c0,1.154.12,1.778,1.01,1.778,1.37,0,1.706-1.923,1.706-3.893a25,25,0,0,0-.817-5.624h3.942a20.75,20.75,0,0,1,.817,5.528c0,4.615-2.115,7.066-6.1,7.066C610.24,432.509,608.8,431.091,608.8,428.135Z" transform="translate(-561.981 -415.493)" fill="#2e3745"/>
        <path id="Tracé_774" data-name="Tracé 774" d="M674.073,424.689c0-3.485,2.091-6.85,6.177-6.85,2.524,0,4.206,1.226,4.206,3.773,0,3.461-3.749,4.206-6.3,4.35a2.236,2.236,0,0,0,2.379,1.947,5.449,5.449,0,0,0,2.956-1.033l1.081,2.644a8.1,8.1,0,0,1-4.615,1.37C675.755,430.89,674.073,428.342,674.073,424.689Zm6.922-3.052a.921.921,0,0,0-.985-.985c-1.2,0-1.947,1.13-2.019,2.788C679.288,423.367,680.995,422.814,680.995,421.637Z" transform="translate(-615.168 -413.801)" fill="#2e3745"/>
        <path id="Tracé_775" data-name="Tracé 775" d="M738.048,418.223h3.317l.24,1.3a4.127,4.127,0,0,1,3.509-1.682c2.355,0,3.845,1.322,3.845,4.254v8.412h-4.014V422.79c0-1.13-.144-1.875-1.106-1.875a1.587,1.587,0,0,0-1.538,1.779v7.811h-3.99v-9.83Z" transform="translate(-667.294 -413.801)" fill="#2e3745"/>
        <path id="Tracé_776" data-name="Tracé 776" d="M809.681,408.534v-12.5h4.038v4.422h3v3.1h-3v4.807c0,1.322.625,1.73,1.442,1.73a2.75,2.75,0,0,0,1.3-.409l.889,2.548a6.635,6.635,0,0,1-3.437.889C809.97,413.125,809.681,410.793,809.681,408.534Z" transform="translate(-725.661 -396.036)" fill="#2e3745"/>
        <path id="Tracé_777" data-name="Tracé 777" d="M852.634,429.544l1.033-2.812a8.254,8.254,0,0,0,3.629,1.226c.649,0,1.106-.288,1.106-.913,0-.721-.673-.961-1.538-1.25-1.779-.553-3.821-1.178-3.821-3.773,0-2.644,2.235-4.182,4.807-4.182a7.119,7.119,0,0,1,4.807,1.8l-1.8,2.307a5.04,5.04,0,0,0-2.788-1.25c-.673,0-1.106.361-1.106.938,0,.7.7.985,1.659,1.322,1.754.6,3.773,1.3,3.773,3.822,0,2.692-1.971,4.11-4.927,4.11A8.916,8.916,0,0,1,852.634,429.544Z" transform="translate(-760.659 -413.801)" fill="#2e3745"/>
      </g>
    </g>
  </g>
</svg>
