<svg id="Calque_2" data-name="Calque 2" xmlns="http://www.w3.org/2000/svg" width="27.608" height="34.449" viewBox="0 0 27.608 34.449">
  <g id="Calque_1" data-name="Calque 1" transform="translate(0 0)">
    <path id="Tracé_642" data-name="Tracé 642" d="M0,18.278A4.128,4.128,0,1,1,1.209,21.21,4.135,4.135,0,0,1,0,18.278Z" transform="translate(0 -4.722)" fill="#c9966f"/>
    <path id="Tracé_643" data-name="Tracé 643" d="M18.628,47.539a4.135,4.135,0,1,1,4.141-4.1A4.135,4.135,0,0,1,18.628,47.539Z" transform="translate(-4.831 -13.09)" fill="#c9966f"/>
    <path id="Tracé_644" data-name="Tracé 644" d="M37.269,18.285a4.135,4.135,0,1,1-4.121-4.135A4.134,4.134,0,0,1,37.269,18.285Z" transform="translate(-9.661 -4.722)" fill="#c9966f"/>
    <path id="Tracé_645" data-name="Tracé 645" d="M13.875,8.04A6.222,6.222,0,0,1,7.693,2.8,6.428,6.428,0,0,1,7.78.411.273.273,0,0,1,8.02.177a6.208,6.208,0,0,1,7.442,4.541,6.122,6.122,0,0,1,0,2.948.227.227,0,0,1-.2.2,6.669,6.669,0,0,1-1.387.173Z" transform="translate(-2.539 -0.012)" fill="#161e2e"/>
    <path id="Tracé_646" data-name="Tracé 646" d="M29.773,1.842a6.215,6.215,0,0,1-7.6,6.042.293.293,0,0,1-.267-.253A6.222,6.222,0,0,1,26.986.095,6.569,6.569,0,0,1,29.38.181a.26.26,0,0,1,.233.24,6.769,6.769,0,0,1,.16,1.42Z" transform="translate(-7.247 -0.016)" fill="#161e2e"/>
    <path id="Tracé_647" data-name="Tracé 647" d="M17.236,20.207v1.727c0,.22,0,.227-.213.133a4,4,0,0,1-2.461-3.148,3.908,3.908,0,0,1,1.774-4.088,3.9,3.9,0,0,1,4.415-.14,3.894,3.894,0,0,1,2,3.874,4,4,0,0,1-2.507,3.474c-.207.093-.207.087-.207-.133V18.433c0-.153-.04-.2-.193-.2h-2.4c-.16,0-.213,0-.213.2C17.243,19.046,17.236,19.627,17.236,20.207Z" transform="translate(-4.826 -4.697)" fill="#c9966f"/>
    <path id="Tracé_648" data-name="Tracé 648" d="M25.537,32.356V30.428a3.6,3.6,0,0,0-1.394-2.621c-.133-.113-.113-.153,0-.247a4.134,4.134,0,1,1,3.008,7.382,3.721,3.721,0,0,1-1.46-.08c-.113,0-.153-.073-.153-.2C25.544,33.936,25.537,33.216,25.537,32.356Z" transform="translate(-8.012 -8.903)" fill="#c9966f"/>
    <path id="Tracé_649" data-name="Tracé 649" d="M11.473,34.975a4.135,4.135,0,0,1-.667-8.229,4.061,4.061,0,0,1,3.128.82c.073.053.147.087,0,.187a3.714,3.714,0,0,0-1.46,3.074V34.6c0,.167-.047.227-.207.26A4.615,4.615,0,0,1,11.473,34.975Z" transform="translate(-2.411 -8.902)" fill="#c9966f"/>
  </g>
</svg>
