<svg xmlns="http://www.w3.org/2000/svg" width="116.055" height="124.194" viewBox="0 0 116.055 124.194">
  <g id="Groupe_786" data-name="Groupe 786" transform="translate(-192.549 -307.204) rotate(30)">
    <path id="Tracé_658" data-name="Tracé 658" d="M431.778,145.953a45.3,45.3,0,0,0-5.983.571,51.248,51.248,0,0,1-6.9.637,25.269,25.269,0,0,1-8.082-1.008,37.178,37.178,0,0,0-18.316,0,25.264,25.264,0,0,1-8.082,1.008,51.3,51.3,0,0,1-6.9-.637,45.459,45.459,0,0,0-5.982-.571h0a8.556,8.556,0,0,0-5.933,1.864c-1.583,1.455-2.353,3.713-2.353,6.9,0,5.9,2.711,8.766,8.287,8.766a45.471,45.471,0,0,0,5.983-.571,51.282,51.282,0,0,1,6.9-.637,25.234,25.234,0,0,1,8.082,1.008,25.861,25.861,0,0,0,5.9,1.047v21.6c0,5.381-2.117,5.158-2.117,7.893,0,3.868,6.352,4.395,6.352,5.288s-6.352,1.872-6.352,5.762c0,3.868,6.352,4.395,6.352,5.288s-6.352,1.872-6.352,5.762c0,3.868,6.352,4.395,6.352,5.288s-6.352,1.871-6.352,5.762c0,3.868,6.352,4.394,6.352,5.288s-6.352,1.871-6.352,5.762c0,3.135,8.375,2.868,8.375,6.036a1.356,1.356,0,0,0,1.117-1.4c0-2.318-5.723-2.7-5.723-4.636,0-1.133,6.979-2.6,6.979-5.8s-6.979-4.18-6.979-5.246c0-1.134,6.979-2.6,6.979-5.8s-6.979-4.18-6.979-5.247c0-1.134,6.979-2.6,6.979-5.8s-6.979-4.18-6.979-5.247c0-1.134,6.979-2.6,6.979-5.8s-6.979-4.18-6.979-5.247c0-2.957,5.1-3.846,5.1-7.893V164.314a25.815,25.815,0,0,0,5.668-1.028,25.24,25.24,0,0,1,8.082-1.008,51.283,51.283,0,0,1,6.9.637,45.472,45.472,0,0,0,5.983.571c5.576,0,8.288-2.868,8.288-8.766S437.354,145.953,431.778,145.953Zm-28.336,86.882a.773.773,0,0,0,.29-.445.743.743,0,0,1-.034.608,2.077,2.077,0,0,1-.349.525,5.573,5.573,0,0,1-.918.8,19.17,19.17,0,0,1-1.994,1.21c-.669.368-1.335.708-1.963,1.091a4.8,4.8,0,0,0-1.635,1.458,2.107,2.107,0,0,1,.312-1.155,4.274,4.274,0,0,1,.773-.95,9.325,9.325,0,0,1,1.96-1.371c.691-.378,1.4-.686,2.1-.994.345-.157.693-.3,1.011-.481A2.3,2.3,0,0,0,403.442,232.835Zm0-11.073a.77.77,0,0,0,.29-.444.743.743,0,0,1-.034.608,2.052,2.052,0,0,1-.349.524,5.573,5.573,0,0,1-.918.8,19.359,19.359,0,0,1-1.994,1.211c-.669.367-1.335.707-1.963,1.09A4.8,4.8,0,0,0,396.84,227a2.108,2.108,0,0,1,.312-1.155,4.274,4.274,0,0,1,.773-.95,9.364,9.364,0,0,1,1.96-1.371c.691-.378,1.4-.686,2.1-.993.345-.158.693-.3,1.011-.481A2.31,2.31,0,0,0,403.442,221.762Zm0-11.206a.767.767,0,0,0,.29-.444.743.743,0,0,1-.034.608,2.076,2.076,0,0,1-.349.525,5.672,5.672,0,0,1-.918.8,19.162,19.162,0,0,1-1.994,1.21c-.669.367-1.335.708-1.963,1.09a4.807,4.807,0,0,0-1.635,1.458,2.1,2.1,0,0,1,.312-1.154,4.275,4.275,0,0,1,.773-.95,9.327,9.327,0,0,1,1.96-1.371c.691-.378,1.4-.686,2.1-.994.345-.158.693-.3,1.011-.481A2.306,2.306,0,0,0,403.442,210.556Zm0-11.15a.767.767,0,0,0,.29-.444.743.743,0,0,1-.034.608,2.076,2.076,0,0,1-.349.525,5.668,5.668,0,0,1-.918.8,19.163,19.163,0,0,1-1.994,1.21c-.669.367-1.335.707-1.963,1.09a4.8,4.8,0,0,0-1.635,1.458,2.108,2.108,0,0,1,.312-1.155,4.268,4.268,0,0,1,.773-.949,9.29,9.29,0,0,1,1.96-1.371c.691-.379,1.4-.686,2.1-.994.345-.158.693-.3,1.011-.481A2.308,2.308,0,0,0,403.442,199.406ZM438.311,158a5.555,5.555,0,0,1-1.692,2.772,4.422,4.422,0,0,1-1.472.807,5,5,0,0,1-1.645.2c.517-.187,1.01-.376,1.477-.592a5.96,5.96,0,0,0,1.265-.816,5,5,0,0,0,1.469-2.523,11.119,11.119,0,0,0,.334-2.893c-.916.5-4.074,1.686-14.022,2.454,1.35-.178,2.7-.344,4.042-.58q1.091-.177,2.176-.409c.723-.138,1.443-.311,2.157-.5s1.425-.389,2.117-.647a6.43,6.43,0,0,0,1.95-1,6.4,6.4,0,0,1-2.048.69c-.707.164-1.428.273-2.146.378-.725.09-1.441.2-2.168.259q-1.085.121-2.178.188c-2.451.2-4.912.3-7.375.386.179-.031.359-.055.538-.09q.8-.145,1.6-.331c.532-.111,1.06-.246,1.584-.4s1.044-.31,1.553-.511a4.549,4.549,0,0,0,1.419-.774,4.9,4.9,0,0,1-1.518.467c-.52.108-1.052.177-1.581.242-1.062.117-2.125.222-3.2.268-2.134.139-4.277.188-6.42.234-2.144.024-4.287.078-6.434.063-2.144.021-4.292.02-6.439.014s-4.3.009-6.44-.016c-2.147.015-4.29-.041-6.433-.064-2.143-.046-4.286-.1-6.42-.234-1.072-.046-2.133-.15-3.2-.267-.529-.065-1.06-.132-1.581-.241a4.9,4.9,0,0,1-1.518-.466,4.531,4.531,0,0,0,1.419.775c.508.2,1.029.356,1.553.512s1.053.283,1.584.4,1.065.234,1.6.332c.165.031.33.054.5.082-2.449-.081-4.9-.188-7.332-.385-.729-.044-1.454-.108-2.177-.187-.728-.062-1.445-.169-2.168-.258-.718-.1-1.441-.213-2.146-.378a6.61,6.61,0,0,1-2.049-.689,6.24,6.24,0,0,0,1.95,1c.693.258,1.4.452,2.117.648s1.433.357,2.157.5c.722.154,1.448.292,2.176.41,1.323.232,2.653.4,3.983.572-9.833-.763-13-1.937-13.943-2.439a11.821,11.821,0,0,0,.3,2.776A5.258,5.258,0,0,0,367,160.287a6.842,6.842,0,0,0,2.7,1.469,5.625,5.625,0,0,1-1.633-.244,4.4,4.4,0,0,1-1.466-.818,5.562,5.562,0,0,1-1.65-2.8,12.788,12.788,0,0,1-.384-3.145,13.135,13.135,0,0,1,.325-3.158,5.74,5.74,0,0,1,1.583-2.889,5.122,5.122,0,0,1,1.449-.947,7.394,7.394,0,0,1,1.651-.472,14.672,14.672,0,0,1,3.333-.123c1.1.063,2.179.187,3.254.321,2.147.261,4.266.6,6.39.723,1.059.071,2.115.063,3.187.039s2.127-.091,3.173-.219a21.056,21.056,0,0,0,3.093-.6c1.021-.272,2.071-.6,3.159-.809a34.055,34.055,0,0,1,6.553-.532,33.26,33.26,0,0,1,6.551.562c1.086.219,2.132.545,3.152.813a21.643,21.643,0,0,0,3.1.593c1.05.118,2.111.185,3.178.209s2.126.025,3.187-.047c2.125-.128,4.244-.468,6.393-.729,1.075-.132,2.157-.255,3.254-.313a14.067,14.067,0,0,1,3.332.153,6.928,6.928,0,0,1,1.639.5,5.287,5.287,0,0,1,1.424.974,5.991,5.991,0,0,1,1.515,2.911,13.514,13.514,0,0,1,.291,3.154A11.812,11.812,0,0,1,438.311,158Zm-21.874,2.834c-1.247.1-2.491.173-3.712.376-.345.05-.686.113-1.025.182l-.266.066.265-.066c-.863.179-1.708.414-2.559.677l-.142.042c.332-.081.651-.166.963-.253-.312.087-.631.171-.964.253a20.06,20.06,0,0,1-3.56.774,36.378,36.378,0,0,1-7.562,0,20.008,20.008,0,0,1-3.534-.767c-.342-.084-.669-.17-.99-.259.321.089.647.175.99.259-.055-.017-.113-.032-.167-.049-.867-.268-1.729-.508-2.61-.687.5.12.96.248,1.422.377-.462-.128-.925-.257-1.424-.378-.323-.065-.647-.124-.976-.171-1.221-.2-2.466-.272-3.711-.375a31.275,31.275,0,0,1,3.759-.013,20.126,20.126,0,0,1,3.72.65,22.356,22.356,0,0,0,3.61.662c1.22.117,2.456.145,3.692.15s2.471-.033,3.691-.151a22.247,22.247,0,0,0,3.61-.662,20.127,20.127,0,0,1,3.72-.65A31.292,31.292,0,0,1,416.437,160.829Zm-5.38.723c-.247.066-.489.133-.732.2C410.568,161.685,410.81,161.618,411.057,161.552Zm-26.642-.876c-.551,0-1.105.018-1.659.05C383.31,160.695,383.864,160.676,384.415,160.676Zm-1.732.053c-.536.032-1.073.076-1.608.129C381.611,160.806,382.148,160.761,382.684,160.729Zm-1.732.141c-.522.053-1.043.114-1.56.178C379.909,160.984,380.43,160.923,380.952,160.87Zm39.6-.144c-.554-.032-1.107-.05-1.659-.05C419.447,160.676,420,160.695,420.555,160.726Zm3.367.323c-.518-.065-1.04-.126-1.564-.179C422.882,160.923,423.4,160.984,423.922,161.049Zm-1.686-.19c-.535-.053-1.072-.1-1.61-.129C421.164,160.761,421.7,160.806,422.236,160.859Zm11.1.934c-.1.013-.211.024-.318.035C433.124,161.817,433.229,161.806,433.335,161.792Zm-.671.062c-.11.007-.22.013-.33.017C432.444,161.868,432.554,161.862,432.664,161.854Zm-.7.025c-.062,0-.122.005-.183.005-.031,0-.064,0-.095,0C431.777,161.882,431.87,161.881,431.961,161.88Zm-1.512-.044-.2-.013Zm-1.507-.133-.21-.023Zm-1.586-.193-.262-.035Zm-1.741-.236c-.507-.07-1.02-.14-1.535-.2C424.6,161.134,425.109,161.2,425.616,161.273Zm-46.388-.2c-.514.065-1.023.134-1.527.2C378.205,161.2,378.715,161.134,379.228,161.068Zm-3.016.406-.258.035Zm-1.634.2-.21.023Zm-1.519.144-.2.013Zm-1.432.058c-.03,0-.064,0-.095,0-.062,0-.122,0-.183-.005C371.442,161.881,371.535,161.882,371.628,161.881Zm-.65-.009c-.111,0-.221-.01-.329-.017C370.757,161.862,370.867,161.868,370.978,161.872Zm-.684-.045c-.107-.01-.211-.021-.315-.035C370.083,161.806,370.187,161.817,370.294,161.827Zm30.327,22.252-.038,1.714a15.45,15.45,0,0,1-.092,1.75,7.631,7.631,0,0,1-.434,1.75,8.361,8.361,0,0,1-.842,1.587,14.869,14.869,0,0,1-2.375,2.618,22.55,22.55,0,0,0,1.882-2.886,7.529,7.529,0,0,0,.877-3.144c.025-.54,0-1.1-.011-1.675l-.037-1.714-.021-3.429c.011-2.285.036-4.57.126-6.855s.2-4.57.43-6.856c.228,2.286.347,4.571.429,6.856s.116,4.57.127,6.855Z" transform="translate(0)" fill="rgba(22,30,46,0.59)"/>
    <path id="Tracé_659" data-name="Tracé 659" d="M403.013,147.855a16.741,16.741,0,0,0-3.329-.812,28.926,28.926,0,0,0-6.8,0,16.753,16.753,0,0,0-3.329.812,21.543,21.543,0,0,1-3.153.871c-1.077.213-2.182.326-3.292.48a21.758,21.758,0,0,0,3.366.143,16.4,16.4,0,0,0,3.358-.536,19.9,19.9,0,0,1,3.188-.567c1.074-.1,2.167-.124,3.262-.125s2.188.024,3.262.123a19.886,19.886,0,0,1,3.188.567,16.474,16.474,0,0,0,3.358.536,21.758,21.758,0,0,0,3.366-.142c-1.111-.152-2.215-.266-3.293-.479A21.442,21.442,0,0,1,403.013,147.855Z" transform="translate(5.369 -0.341)" fill="rgba(22,30,46,0.59)"/>
  </g>
</svg>
