<svg xmlns="http://www.w3.org/2000/svg" xmlns:xlink="http://www.w3.org/1999/xlink" width="25" height="34" viewBox="0 0 25 34">
  <defs>
    <clipPath id="clip-path">
      <rect width="25" height="34" fill="none"/>
    </clipPath>
  </defs>
  <g id="Twitter" clip-path="url(#clip-path)">
    <rect id="Rectangle_1457" data-name="Rectangle 1457" width="25" height="25" fill="none"/>
    <path id="Tracé_2" data-name="Tracé 2" d="M45.548,21.333a13.781,13.781,0,0,0,13.9-13.9V6.767a10.764,10.764,0,0,0,2.384-2.516,10.993,10.993,0,0,1-2.781.795A5.152,5.152,0,0,0,61.174,2.4a12.146,12.146,0,0,1-3.046,1.192A4.729,4.729,0,0,0,54.553,2a4.975,4.975,0,0,0-4.9,4.9,2.582,2.582,0,0,0,.132,1.059A13.691,13.691,0,0,1,39.721,2.795a5.071,5.071,0,0,0-.662,2.516,5.261,5.261,0,0,0,2.119,4.105,4.464,4.464,0,0,1-2.251-.662h0A4.84,4.84,0,0,0,42.9,13.521a4.082,4.082,0,0,1-1.324.132,2.253,2.253,0,0,1-.927-.132,5.017,5.017,0,0,0,4.635,3.443,10,10,0,0,1-6.091,2.119A3.666,3.666,0,0,1,38,18.95a12.5,12.5,0,0,0,7.548,2.384" transform="translate(-38)" fill="#161e2e" fill-rule="evenodd"/>
  </g>
</svg>
