<svg xmlns="http://www.w3.org/2000/svg" width="34.069" height="55.826" viewBox="0 0 34.069 55.826">
  <g id="Groupe_787" data-name="Groupe 787" transform="matrix(0.978, -0.208, 0.208, 0.978, -318.072, -65.301)">
    <path id="Tracé_664" data-name="Tracé 664" d="M315.087,159.532c2.558-2.5,5.2-5.091,5.2-9.425,0-6.086-2.425-13.819-2.529-14.145a.893.893,0,0,0-.357-.475c-.8-.535-5.338-.648-9-.648s-8.2.112-9,.648a.9.9,0,0,0-.357.475c-.1.326-2.529,8.059-2.529,14.145,0,4.334,2.645,6.922,5.2,9.425,2.44,2.388,4.744,4.643,4.744,8.355v11.339c0,1.668-.127,1.8-.956,2.624-.5.468-3.707,1.133-6.388,1.461a.9.9,0,0,0-.787.888v.833a.9.9,0,0,0,.578.837c.107.041,2.693.991,9.493.991s9.386-.95,9.493-.991a.9.9,0,0,0,.578-.837V184.2a.9.9,0,0,0-.787-.888c-2.682-.327-5.889-.992-6.389-1.462-.828-.827-.955-.955-.955-2.623V167.887C310.343,164.175,312.648,161.92,315.087,159.532ZM308.4,149.486c-1.472-.012-2.944-.011-4.416-.035l-2.208-.041c-.736-.025-1.472-.04-2.208-.073.736-.034,1.472-.048,2.208-.073l2.208-.041c1.472-.024,2.944-.023,4.416-.034,1.472.012,2.944.01,4.416.035s2.944.053,4.416.114c-1.472.062-2.944.09-4.416.114S309.875,149.473,308.4,149.486Zm4.374,10.92a13.967,13.967,0,0,1,1.177-1.591c.617-.762,1.542-1.743,2.6-3.141A11.4,11.4,0,0,0,318,153.156c.085-.252.182-.509.262-.778l.1-.415a2.79,2.79,0,0,0,.087-.43,6.9,6.9,0,0,0,.1-.91c.007-.158.015-.317.023-.479s-.008-.345-.011-.52c-.007-.3-.021-.595-.035-.885H298.281c-.014.277-.027.555-.035.843q-.007.264-.014.521.012.242.023.478a6.54,6.54,0,0,0,.094.909l.03.218.052.211q.05.21.1.414c.072.27.175.524.254.778a11.109,11.109,0,0,0,1.428,2.515c1.048,1.4,1.969,2.376,2.583,3.134a14.187,14.187,0,0,1,1.175,1.585,3.137,3.137,0,0,1,.241.442c-1.531-1.67-3.293-3.124-4.686-4.919a10.314,10.314,0,0,1-1.647-2.954,9.1,9.1,0,0,1-.453-3.347,30.867,30.867,0,0,1,.271-3.387c.138-1.125.339-2.241.552-3.353q.664-3.334,1.649-6.593s0,.029,0,.094l.271.052c.388.068.779.12,1.17.167q1.174.134,2.351.2c1.569.1,3.14.124,4.71.132,1.57-.008,3.14-.035,4.71-.133q1.177-.066,2.351-.2c.391-.047.781-.1,1.17-.168l.272-.052c0-.064,0-.094,0-.094q.992,3.263,1.654,6.613c.214,1.116.415,2.236.552,3.364a30.929,30.929,0,0,1,.269,3.4,9.072,9.072,0,0,1-.473,3.355,10.4,10.4,0,0,1-1.668,2.955c-1.4,1.795-3.174,3.251-4.7,4.932A3.064,3.064,0,0,1,312.778,160.406Zm4.052-24.207c-.071,0-.143.012-.214.015-.39.019-.78.035-1.172.04-.781.02-1.564.023-2.346.027h-9.389c-.782,0-1.564-.007-2.346-.027-.391,0-.781-.021-1.172-.04-.071,0-.142-.011-.213-.015.328-.111,1.885-.464,8.425-.464S316.5,136.089,316.829,136.2ZM308.4,185.964c-6.714,0-9.176-.933-9.176-.933v-.555c.708.218,3.379.9,9.176.9s8.468-.678,9.176-.9v.555S315.117,185.964,308.4,185.964Zm1.044-18.078v3.361c-.069-1.643-.152-3.285-.3-4.928-.159,1.783-.245,3.566-.316,5.349s-.106,3.566-.118,5.349c0,.9-.027,1.771,0,2.687a5.623,5.623,0,0,0,.194,1.438,2.6,2.6,0,0,0,.346.709,4.582,4.582,0,0,0,.475.563l.246.243.125.12c.052.044.1.094.157.131a3.217,3.217,0,0,0,.644.375,7.919,7.919,0,0,0,1.315.45,13.37,13.37,0,0,0,2.677.4c-.733-.262-1.456-.523-2.164-.805,1.351.348,3,.613,3.989.756a50.171,50.171,0,0,1-16.627,0l.365-.054c1-.189,2-.387,2.989-.632.494-.121.985-.254,1.462-.419a2.887,2.887,0,0,0,1.27-.712,3.31,3.31,0,0,0,.845-1.191,4.847,4.847,0,0,0,.188-1.467l0-3.058c.012-2.041.006-4.081.038-6.122q.018-1.756.05-3.512a9.733,9.733,0,0,0-2.329-5.246,4.558,4.558,0,0,1,1.506-.615,2.249,2.249,0,0,0-.246.16,1.505,1.505,0,0,0-.488.6,4.089,4.089,0,0,1,1.2-.276,1.1,1.1,0,0,0-.405.553,4.017,4.017,0,0,1,.961-.1c.3-.007.595,0,.9,0s.6,0,.9,0a4.074,4.074,0,0,1,.961.1,1.1,1.1,0,0,0-.4-.552,4.115,4.115,0,0,1,1.2.275,1.508,1.508,0,0,0-.487-.6,2.251,2.251,0,0,0-.243-.159,4.556,4.556,0,0,1,1.5.614A9.5,9.5,0,0,0,309.448,167.887Z" transform="translate(0 0)" fill="rgba(22,30,46,0.65)"/>
    <path id="Tracé_665" data-name="Tracé 665" d="M302.812,142.778c.146-.841.282-1.685.391-2.541a18.54,18.54,0,0,0-.844,2.439c-.235.827-.423,1.665-.589,2.507s-.292,1.692-.376,2.548a20.606,20.606,0,0,0-.129,2.577c.232-.833.411-1.669.589-2.5s.34-1.672.5-2.508S302.671,143.62,302.812,142.778Z" transform="translate(-2.559 -2.911)" fill="rgba(22,30,46,0.65)"/>
    <path id="Tracé_666" data-name="Tracé 666" d="M341.362,147.749c-.1-.851-.251-1.7-.406-2.538s-.343-1.679-.557-2.509-.441-1.657-.729-2.465l.506,2.515.487,2.515.473,2.518c.159.839.3,1.682.473,2.523-.023-.428-.061-.855-.1-1.282S341.418,148.174,341.362,147.749Z" transform="translate(-23.27 -2.911)" fill="rgba(22,30,46,0.65)"/>
    <path id="Tracé_667" data-name="Tracé 667" d="M303.394,151.212c.266-1.173.478-2.347.706-3.52s.449-2.345.651-3.53a21.169,21.169,0,0,0-.944,3.474A22.786,22.786,0,0,0,303.394,151.212Z" transform="translate(-3.708 -5.028)" fill="rgba(22,30,46,0.65)"/>
    <path id="Tracé_668" data-name="Tracé 668" d="M312.384,225.781a3.189,3.189,0,0,0,.507-.27,2.609,2.609,0,0,0,.46-.381,3.849,3.849,0,0,0,.725-.91,3.037,3.037,0,0,0,.3-1.163c.031-.371.035-.725.04-1.076.01-.7-.01-1.391-.013-2.087s-.035-1.391-.07-2.085c-.064-1.391-.165-2.781-.36-4.172-.07.5-.125,1.008-.174,1.512.007,1.3.011,2.6.018,3.893,0,1.021.012,2.037,0,3.063a5.077,5.077,0,0,1-.22,1.553,3.565,3.565,0,0,1-.918,1.277l-.137.136a1.418,1.418,0,0,1-.166.132,2.751,2.751,0,0,1-.352.193,6.406,6.406,0,0,1-.73.272c-.406.126-.817.226-1.229.317-.6.222-1.216.424-1.832.639a14.2,14.2,0,0,0,2.094-.242A9.731,9.731,0,0,0,312.384,225.781Z" transform="translate(-6.316 -42.492)" fill="rgba(22,30,46,0.65)"/>
    <path id="Tracé_669" data-name="Tracé 669" d="M314.731,241.994c-.757,0-1.513.02-2.272.012a18.628,18.628,0,0,0,2.265.247c.758.047,1.517.06,2.276.064s1.518-.018,2.276-.064a18.526,18.526,0,0,0,2.265-.248c-.759.007-1.516-.012-2.272-.013l-2.269-.01Z" transform="translate(-8.597 -57.779)" fill="rgba(22,30,46,0.65)"/>
    <path id="Tracé_670" data-name="Tracé 670" d="M318.614,244.724c-.92.008-1.84.017-2.76.013s-1.84-.005-2.76-.013c-.46,0-.92-.014-1.38-.03s-.92-.031-1.38-.066a20.006,20.006,0,0,0,2.752.325c.922.062,1.846.079,2.769.083s1.847-.02,2.769-.082a20.01,20.01,0,0,0,2.751-.325q-.69.053-1.38.065C319.535,244.71,319.074,244.721,318.614,244.724Z" transform="translate(-7.451 -59.205)" fill="rgba(22,30,46,0.65)"/>
  </g>
</svg>
